<?xml version="1.0" encoding="UTF-8" standalone="no"?>
<!-- Created with Inkscape (http://www.inkscape.org/) -->

<svg
   xmlns:dc="http://purl.org/dc/elements/1.1/"
   xmlns:cc="http://creativecommons.org/ns#"
   xmlns:rdf="http://www.w3.org/1999/02/22-rdf-syntax-ns#"
   xmlns:svg="http://www.w3.org/2000/svg"
   xmlns="http://www.w3.org/2000/svg"
   xmlns:sodipodi="http://sodipodi.sourceforge.net/DTD/sodipodi-0.dtd"
   xmlns:inkscape="http://www.inkscape.org/namespaces/inkscape"
   width="2000"
   height="2000"
   viewBox="0 0 529.16665 529.16668"
   version="1.1"
   id="svg8"
   inkscape:version="0.92.4 (5da689c313, 2019-01-14)"
   sodipodi:docname="rss_portrait.svg">
  <defs
     id="defs2" />
  <sodipodi:namedview
     id="base"
     pagecolor="#ffffff"
     bordercolor="#666666"
     borderopacity="1.0"
     inkscape:pageopacity="0.0"
     inkscape:pageshadow="2"
     inkscape:zoom="0.24748737"
     inkscape:cx="981.10621"
     inkscape:cy="644.41024"
     inkscape:document-units="mm"
     inkscape:current-layer="layer1"
     showgrid="false"
     units="px"
     inkscape:window-width="1920"
     inkscape:window-height="1017"
     inkscape:window-x="-8"
     inkscape:window-y="-8"
     inkscape:window-maximized="1" />
  <metadata
     id="metadata5">
    <rdf:RDF>
      <cc:Work
         rdf:about="">
        <dc:format>image/svg+xml</dc:format>
        <dc:type
           rdf:resource="http://purl.org/dc/dcmitype/StillImage" />
        <dc:title></dc:title>
      </cc:Work>
    </rdf:RDF>
  </metadata>
  <g
     inkscape:label="Layer 1"
     inkscape:groupmode="layer"
     id="layer1"
     transform="translate(0,232.16668)">
    <g
       transform="matrix(4.7926195,0,0,4.7926195,14.549131,-1126.5995)"
       id="layer1-5"
       inkscape:label="Layer 1">
      <path
         inkscape:connector-curvature="0"
         id="path359"
         d="m -4.2993585,297.35384 c -0.05806,-0.094 -0.02164,-0.22274 0.08093,-0.28615 0.102599,-0.0634 0.186537,-0.5495 0.186537,-1.08022 0,-1.64499 0.349396,-3.03032 1.018506,-4.03824 0.343306,-0.51714 0.821856,-1.51843 1.063451,-2.22506 0.241588,-0.70664 1.07637505,-2.64759 1.85507505,-4.31323 0.778701,-1.66564 1.81341895,-4.01956 2.29936295,-5.23094 0.485945,-1.21138 1.272519,-3.06974 1.74794,-4.12969 0.475421,-1.05996 1.217994,-2.95961 1.6501491,-4.22146 1.9193953,-5.60439 3.8404485,-9.89665 5.1381694,-11.48035 0.346948,-0.4234 0.572026,-0.83496 0.50018,-0.91458 -0.07185,-0.0796 -0.04807,-0.11088 0.05293,-0.0695 0.100947,0.0414 0.744195,-0.48902 1.429434,-1.17876 0.685245,-0.68973 1.147402,-1.19318 1.027011,-1.11877 -0.139206,0.086 -0.17054,0.057 -0.08608,-0.0796 0.07305,-0.11819 0.210281,-0.16701 0.304971,-0.10849 0.09468,0.0585 0.218579,-0.0146 0.275324,-0.16246 0.05674,-0.14787 0.270959,-0.31274 0.476024,-0.36636 0.209727,-0.0549 0.318659,-0.18521 0.248977,-0.29795 -0.06812,-0.11025 -0.041,-0.17775 0.06035,-0.15001 0.101322,0.0277 0.320073,-0.11476 0.486104,-0.31665 0.16603,-0.2019 0.247291,-0.24319 0.18057,-0.0918 -0.06673,0.15142 0.0582,0.0688 0.277627,-0.18354 0.219418,-0.25237 0.343306,-0.33497 0.275316,-0.18355 -0.06798,0.15143 0.05591,0.0688 0.275309,-0.18354 0.219418,-0.25237 0.341836,-0.34951 0.272035,-0.21588 -0.104187,0.1995 -0.05987,0.20113 0.247513,0.009 0.205932,-0.12861 0.341454,-0.28717 0.301157,-0.35237 -0.08424,-0.1363 1.746379,-1.02442 1.968731,-0.95512 0.08098,0.0252 0.147238,-0.0416 0.147238,-0.14849 0,-0.10691 0.08259,-0.14333 0.183539,-0.0809 0.100948,0.0624 0.18354,0.0211 0.18354,-0.0918 0,-0.11286 0.0826,-0.15416 0.183546,-0.0918 0.100948,0.0624 0.18354,0.037 0.18354,-0.0565 0,-0.23812 1.834195,-0.97543 2.067639,-0.83115 0.105366,0.0651 0.140544,0.0358 0.07817,-0.0651 -0.06535,-0.10578 0.719472,-0.46113 1.852946,-0.83893 1.081495,-0.36048 2.55022,-0.86648 3.263837,-1.12445 0.713611,-0.25796 1.580849,-0.49201 1.927186,-0.52011 0.346344,-0.0281 0.67101,-0.0978 0.721484,-0.15501 0.0505,-0.0572 0.779346,-0.29753 1.619709,-0.53415 1.211633,-0.34116 1.507864,-0.49062 1.430981,-0.72201 -0.05335,-0.16048 -0.271806,-0.78101 -0.485514,-1.37896 -0.578228,-1.61787 -2.348963,-9.82981 -2.614692,-12.12587 -0.02664,-0.23007 0.113774,-0.43374 0.379558,-0.55063 0.310341,-0.13648 0.391567,-0.28252 0.307359,-0.55259 -0.442235,-1.41831 -0.759673,-4.41046 -0.447438,-4.21749 0.09742,0.0602 0.177123,-0.0655 0.177123,-0.27928 0,-0.2138 0.08259,-0.3377 0.183539,-0.2753 0.100948,0.0624 0.18354,0.0259 0.18354,-0.081 0,-0.4012 0.03226,-0.47313 0.272236,-0.60743 0.13539,-0.0758 0.301628,-0.4661 0.369431,-0.8674 0.109299,-0.64695 0.06555,-0.7793 -0.386142,-1.16782 l -0.50942,-0.43818 0.797417,-2.08995 c 1.110865,-2.91149 1.6884,-4.01244 3.229485,-6.15634 0.736898,-1.02514 1.283798,-1.92626 1.215337,-2.0025 -0.06847,-0.0762 -0.0419,-0.10425 0.05903,-0.0622 0.100947,0.042 0.555211,-0.29232 1.009474,-0.7429 0.45427,-0.45059 0.709941,-0.74802 0.568155,-0.66097 -0.177088,0.10874 -0.216213,0.091 -0.12497,-0.0566 0.07304,-0.1182 0.204982,-0.17029 0.293193,-0.11578 0.08821,0.0545 0.471391,-0.21188 0.851511,-0.592 0.380121,-0.38012 0.616763,-0.56792 0.525867,-0.41733 -0.145524,0.24112 -0.122701,0.24188 0.191171,0.006 0.19604,-0.14706 0.508136,-0.43614 0.693555,-0.64239 0.18542,-0.20626 0.282538,-0.25113 0.215818,-0.0997 -0.08516,0.19326 -0.0453,0.18295 0.133697,-0.0345 0.140252,-0.17044 0.366628,-0.33563 0.503058,-0.36708 0.136423,-0.0314 0.405857,-0.20812 0.598734,-0.39258 0.192876,-0.18447 0.468186,-0.2903 0.611803,-0.23519 0.143617,0.0551 0.261123,0.0226 0.261123,-0.0723 0,-0.23128 2.50327,-0.98195 2.841581,-0.85213 0.14678,0.0563 0.318166,0.0194 0.380863,-0.082 0.168624,-0.27285 4.533782,-0.11598 4.627875,0.1663 0.0403,0.121 0.15088,0.17207 0.245654,0.11348 0.221464,-0.13686 3.100075,0.81689 3.100075,1.02715 0,0.0872 0.493964,0.33871 1.097692,0.55884 0.603721,0.22013 1.058463,0.46369 1.010535,0.54126 -0.04793,0.0776 0.04058,0.19002 0.196637,0.24991 0.186522,0.0716 0.244405,0.031 0.168875,-0.11842 -0.0632,-0.12503 0.0028,-0.0841 0.146274,0.091 0.143651,0.17509 0.314961,0.26456 0.380689,0.19883 0.06576,-0.0658 0.119511,-0.0182 0.119511,0.10546 0,0.12373 0.08259,0.17392 0.183539,0.11153 0.100948,-0.0624 0.183547,-0.0211 0.183547,0.0918 0,0.11286 0.07393,0.15951 0.16431,0.10366 0.09037,-0.0558 0.216206,0.0337 0.279631,0.19898 0.0634,0.16529 0.167154,0.24869 0.23051,0.18534 0.06334,-0.0633 0.232723,0.0281 0.376375,0.20316 0.169492,0.20658 0.217114,0.22168 0.13566,0.043 -0.06902,-0.15142 0.08705,-0.0275 0.346871,0.27531 0.259819,0.30285 0.475373,0.49391 0.479001,0.42459 0.01672,-0.31968 2.772932,2.82581 3.178491,3.62745 1.295508,2.56071 1.497174,4.47027 1.42077,13.45308 -0.03087,3.63128 0.01353,4.98952 0.160113,4.89891 0.260193,-0.16081 0.25943,0.32646 -0.0021,1.27286 -0.124936,0.45229 -0.638504,1.22746 -1.33763,2.01896 -0.624158,0.70663 -1.454879,1.73906 -1.84605,2.29427 -0.391178,0.55521 -0.981525,1.29856 -1.311886,1.65188 l -0.600663,0.6424 2.509174,0.0348 c 1.396448,0.0194 2.535069,0.11246 2.567569,0.20994 0.03212,0.0964 0.20331,0.13728 0.380446,0.091 0.177123,-0.0463 0.89586,0.22535 1.597185,0.60371 1.371094,0.73971 1.196163,0.71364 7.035463,1.04846 0.947319,0.0543 1.803971,0.18032 1.90367,0.28002 0.09969,0.0997 0.28749,0.14051 0.417323,0.0907 0.293436,-0.1126 4.260717,0.56099 6.234936,1.0586 3.362863,0.84763 6.332196,1.88354 6.332196,2.20912 0,0.0791 0.137436,0.091 0.305416,0.0266 0.221769,-0.0851 0.264272,-0.0506 0.155188,0.12588 -0.09657,0.15626 -0.07905,0.1991 0.04904,0.11992 0.219605,-0.13572 1.5093,0.4157 1.5093,0.64532 0,0.0791 0.105616,0.10326 0.234693,0.0537 0.129084,-0.0495 0.397519,0.0418 0.596514,0.20292 0.199002,0.16113 0.237926,0.23343 0.0865,0.16066 -0.169748,-0.0816 -0.20494,-0.0687 -0.09177,0.0337 1.002655,0.90686 1.409379,1.21981 1.285449,0.9891 -0.08134,-0.15143 0.15935,0.0551 0.534858,0.45885 0.3755,0.4038 0.623283,0.61028 0.550625,0.45886 -0.07267,-0.15142 0.175118,0.0551 0.550625,0.45885 0.375501,0.40379 0.620211,0.61028 0.543786,0.45886 -0.321947,-0.63791 1.883219,1.95409 2.976166,3.49824 2.43159,3.43546 4.01557,7.87856 4.66884,13.09625 0.60808,4.8567 0.82416,5.84204 1.70687,7.78334 0.44438,0.97728 1.03721,2.47892 1.31743,3.33698 0.2802,0.85806 1.02647,2.59596 1.65836,3.862 0.63188,1.26605 1.37643,3.04181 1.65454,3.94616 0.27811,0.90433 1.02949,2.99374 1.66973,4.64313 0.64025,1.6494 1.16409,3.03189 1.16409,3.07222 0,0.0403 -20.17354,0.0536 -44.830082,0.0295 l -44.830096,-0.0438 -0.184878,-0.7661 c -0.101683,-0.42135 -0.232868,-0.81409 -0.291528,-0.87274 -0.05869,-0.0586 -0.331638,0.30673 -0.606628,0.81198 l -0.499978,0.91863 H 7.6223149 c -7.09473235,0 -11.8583524,-0.0683 -11.9217494,-0.17086 z m 12.4916809,-1.032 c 0.1867097,-0.80477 0.1746393,-0.84948 -0.3253598,-1.20552 -0.2855899,-0.20336 -0.5192563,-0.49079 -0.5192563,-0.63875 0,-0.14796 -0.2890792,-0.43957 -0.6423951,-0.64802 -0.3533229,-0.20847 -0.6424021,-0.41315 -0.6424021,-0.45484 0,-0.0417 0.3299312,-0.023 0.7331729,0.0414 0.4747345,0.0759 0.8302009,0.0367 1.0084267,-0.1112 0.1513864,-0.12564 0.4841827,-0.1885 0.7395411,-0.13969 0.2553584,0.0488 0.4991736,0.0323 0.5418015,-0.0366 0.042663,-0.069 0.7633559,-0.14017 1.6016107,-0.15822 1.985567,-0.0427 3.686759,-0.28502 4.827849,-0.68758 0.504744,-0.17807 1.020955,-0.3491 1.14714,-0.38007 0.343791,-0.0844 0.28373,-0.61 -0.180397,-1.57882 -0.339005,-0.70765 -0.54124,-0.90388 -1.091339,-1.05893 -0.533768,-0.15045 -0.718369,-0.32107 -0.881208,-0.81448 -0.113296,-0.34328 -0.325658,-0.72346 -0.471918,-0.84485 -0.332512,-0.27596 -0.372476,-4.2141 -0.06091,-6.00318 l 0.204995,-1.17718 -0.572081,-0.59024 c -0.604478,-0.62366 -0.764709,-1.14481 -0.296773,-0.96524 0.151428,0.0581 0.275316,0.0422 0.275316,-0.0353 0,-0.0775 0.274998,-0.10882 0.611096,-0.0696 0.581245,0.0678 0.629811,0.0263 0.994053,-0.85014 0.210629,-0.50682 0.708331,-1.4021 1.106024,-1.9895 0.928845,-1.37196 1.326745,-2.15248 1.326745,-2.60253 0,-0.19784 0.342293,-0.80074 0.760651,-1.33979 1.067551,-1.37551 1.13563,-1.43111 1.031457,-0.84242 -0.102716,0.58041 -0.01339,0.61579 0.553095,0.21902 0.284626,-0.19935 0.407924,-0.2185 0.407924,-0.0633 0,0.13756 0.140024,0.0957 0.367086,-0.10981 0.357243,-0.3233 0.367849,-0.32037 0.395625,0.10921 0.01568,0.24278 0.01283,0.62577 -0.0062,0.85109 -0.0256,0.30003 0.04044,0.38074 0.246771,0.30156 0.154952,-0.0594 0.281739,-0.30238 0.281739,-0.53983 0,-0.833 -0.413237,-3.19984 -0.558672,-3.19984 -0.08083,0 -0.132733,-0.43362 -0.115349,-0.9636 0.02164,-0.66022 0.103854,-0.94915 0.261047,-0.91771 0.126184,0.0252 0.229428,-0.0396 0.229428,-0.14411 0,-0.12283 0.145996,-0.11312 0.412974,0.0275 0.522663,0.27525 0.681936,0.51559 0.685467,1.03435 0.0014,0.22713 0.09424,0.41297 0.205988,0.41297 0.111748,0 0.155965,0.12305 0.09825,0.27344 -0.05855,0.15268 0.08277,0.46115 0.320032,0.69842 0.383478,0.38347 0.463469,0.39939 0.819463,0.16301 0.26892,-0.17855 0.394501,-0.19455 0.394501,-0.0502 0,0.11643 -0.125678,0.25992 -0.279285,0.31886 -0.226354,0.0869 -0.189394,0.19048 0.195035,0.54675 0.351117,0.32541 0.45941,0.5864 0.416935,1.00488 -0.05126,0.50513 -0.184337,0.61895 -1.250397,1.06944 l -1.19302,0.50415 -0.09177,1.26957 c -0.08911,1.23274 -0.130617,1.32281 -1.43035,3.10376 -0.736211,1.0088 -1.369582,1.99959 -1.407485,2.20175 -0.03788,0.20217 -0.206279,1.27611 -0.374155,2.38654 -0.167883,1.11043 -0.348044,2.23565 -0.400349,2.50051 l -0.09511,0.48154 1.298165,-0.0929 c 0.822626,-0.0588 1.499636,-0.009 1.848145,0.13492 0.302488,0.1253 1.4106,0.24245 2.462473,0.26033 1.284104,0.0219 2.009611,0.11312 2.208079,0.27783 0.228145,0.18934 0.354877,0.19611 0.555461,0.0296 0.207555,-0.17226 0.283953,-0.13983 0.379454,0.16106 0.07679,0.24196 0.277009,0.37675 0.559602,0.37675 0.258203,0 0.524681,0.15818 0.6449,0.38281 0.112678,0.21053 0.249774,0.33789 0.304653,0.28301 0.05487,-0.0549 0.481151,0.10323 0.947263,0.35137 0.466111,0.24813 0.938578,0.45114 1.049924,0.45114 0.111339,0 0.351928,0.16519 0.534642,0.36709 0.182714,0.20189 0.515781,0.36708 0.740138,0.36708 0.224371,0 0.515524,0.12963 0.647015,0.28808 0.131498,0.15844 0.393925,0.24758 0.583174,0.19808 0.240125,-0.0628 0.394036,0.0414 0.509371,0.34473 0.0909,0.23909 0.368508,0.56787 0.616909,0.73063 0.636887,0.41731 0.694943,0.63633 0.850998,3.21057 0.121481,2.00402 0.09536,2.42117 -0.206501,3.29739 -0.190068,0.55171 -0.345582,1.02663 -0.345582,1.05537 0,0.0287 0.365734,0.0522 0.812734,0.0522 h 0.812733 l 0.119442,-1.05536 c 0.06569,-0.58046 0.190629,-1.30315 0.277633,-1.60599 0.087,-0.30285 0.214271,-1.19264 0.282808,-1.97733 0.100337,-1.14865 0.171601,-1.3877 0.365685,-1.22662 0.177095,0.14697 0.353926,0.12624 0.666321,-0.0781 0.330306,-0.21608 0.813143,-0.25976 2.162537,-0.19564 0.955505,0.0454 1.888651,0.13058 2.073654,0.18931 0.185003,0.0587 0.452675,0.0102 0.594835,-0.10775 0.142153,-0.11798 0.336591,-0.16622 0.432079,-0.10721 0.09549,0.059 0.346955,-0.18649 0.558811,-0.54557 0.211856,-0.35907 0.461443,-0.60574 0.554621,-0.54815 0.09318,0.0576 0.361543,-0.2886 0.596361,-0.76931 0.462352,-0.94651 0.7017,-1.17648 1.976272,-1.89888 0.900251,-0.51024 0.982198,-0.52647 2.725081,-0.53973 0.750349,-0.006 1.392564,-0.12943 1.835423,-0.35362 0.374668,-0.18966 1.052886,-0.40053 1.507156,-0.46861 0.454263,-0.068 1.454685,-0.44333 2.22316,-0.83392 0.768476,-0.39058 1.977604,-0.87097 2.686955,-1.06755 0.709351,-0.19657 1.443398,-0.4372 1.631218,-0.53474 0.187813,-0.0975 1.026137,-0.27551 1.862942,-0.3955 0.836798,-0.11999 2.048014,-0.32832 2.691582,-0.46298 1.272525,-0.26625 2.9868,-1.12693 3.128752,-1.57085 0.192426,-0.60179 3.283906,-3.53363 4.173183,-3.95769 0.369666,-0.17629 1.077346,-0.8234 1.572621,-1.43805 0.782134,-0.97064 1.271901,-1.33015 3.725939,-2.73505 l 2.825435,-1.6175 2.306689,0.0574 2.306688,0.0574 1.165994,1.05537 c 0.641306,0.58045 1.224376,1.05537 1.295716,1.05537 0.231482,0 2.036187,2.6028 2.792391,4.02727 0.405024,0.76296 0.828356,1.5111 0.940721,1.66252 0.179357,0.24168 0.163603,0.24331 -0.128993,0.0134 -0.183311,-0.14407 -0.457829,-0.50277 -0.610041,-0.79711 -0.152212,-0.29434 -0.324784,-0.48713 -0.383499,-0.42841 -0.07879,0.0788 0.802966,2.08492 1.16444,2.64926 0.0213,0.0333 0.255012,-0.0811 0.519291,-0.25429 0.668617,-0.43809 0.733291,-0.26111 0.229012,0.62669 -0.237697,0.41846 -0.477142,0.71587 -0.532111,0.66091 -0.05494,-0.0549 -0.391962,0.30653 -0.748871,0.80332 -0.719327,1.00125 -1.6908,3.2236 -1.353904,3.09719 0.117464,-0.044 0.42005,-0.14374 0.672425,-0.22148 l 0.458849,-0.14136 -0.364589,0.43737 c -0.663102,0.79545 -1.641789,1.62896 -2.572078,2.19054 -2.267529,1.36882 -4.661187,3.55133 -4.104991,3.74286 1.73691,0.59816 2.641455,0.83615 3.177998,0.83615 0.530897,0 0.664587,0.0793 0.757432,0.44919 0.16859,0.67173 0.762898,0.9592 2.284976,1.10526 0.754532,0.0724 1.62639,0.27814 1.937452,0.45718 0.311063,0.17904 0.889221,0.42833 1.28479,0.55399 0.395577,0.12566 1.080648,0.42574 1.52239,0.66684 0.992153,0.54152 1.357116,0.54843 2.04653,0.0387 0.2973,-0.21981 0.975358,-0.461 1.506782,-0.53599 0.915089,-0.12912 0.99123,-0.10796 1.438459,0.39966 0.259715,0.29478 0.652752,0.53598 0.873412,0.53598 0.220652,0 0.743244,0.24778 1.161304,0.55063 l 0.76011,0.55063 h 4.36395 4.36394 l -0.91069,-2.24839 c -0.50088,-1.23662 -1.23007,-3.24546 -1.62043,-4.4641 -0.39036,-1.21864 -1.17695,-3.14729 -1.74798,-4.28589 -0.57103,-1.13859 -1.39645,-3.0736 -1.83428,-4.30002 -0.43783,-1.22642 -1.13228,-2.9319 -1.54322,-3.78996 -0.87185,-1.82045 -1.80485,-4.94234 -1.94727,-6.51573 -0.12872,-1.42203 -0.0183,-1.17292 0.52865,1.19302 0.55761,2.41194 0.57716,2.03208 0.0937,-1.81961 -0.63632,-5.06908 -2.286114,-9.53158 -4.891448,-13.23081 -1.132203,-1.60758 -1.760517,-2.26712 -3.788643,-3.97692 -2.058406,-1.73533 -2.72524,-2.18233 -4.347426,-2.91422 -2.467329,-1.11321 -3.9143,-1.60592 -6.963485,-2.37114 -3.594541,-0.90209 -8.086556,-1.55072 -11.350622,-1.63899 l -2.773099,-0.075 -1.536659,-0.76482 c -1.341521,-0.6677 -1.781959,-0.78963 -3.468305,-0.96019 -3.022693,-0.30571 -4.377721,0.0557 -3.171644,0.84597 0.542446,0.35542 0.609645,1.12007 0.17269,1.96505 -0.412718,0.79811 -3.894787,6.34047 -4.615854,7.347 -1.308723,1.82682 -3.951053,2.74214 -9.732401,3.37138 l -2.79597,0.30431 -1.333717,-1.03458 c -0.733548,-0.56902 -1.387431,-1.21613 -1.453083,-1.43804 -0.258279,-0.873 -0.148251,-2.00286 0.286152,-2.93851 0.243156,-0.52373 0.471245,-1.2904 0.506867,-1.70371 l 0.06479,-0.75148 -1.56223,-0.32418 c -1.754162,-0.36402 -2.940065,-0.89119 -3.063086,-1.36164 -0.215076,-0.82245 -4.775766,0.31191 -12.264779,3.05058 -1.905791,0.69692 -5.328278,2.45587 -6.796899,3.49317 -1.59629,1.12747 -4.002657,3.37428 -5.003939,4.67212 -1.118184,1.44937 -3.1433685,5.703 -4.3487925,9.13407 -0.5851856,1.66564 -1.4155669,3.89568 -1.8452941,4.95563 -1.9196659,4.73498 -3.6345029,8.74941 -4.86100785,11.37959 -0.729642,1.56469 -1.52464505,3.42305 -1.76666305,4.12969 -0.242026,0.70663 -0.728137,1.71877 -1.08026,2.24919 -0.553449,0.8337 -0.653529,1.15707 -0.738459,2.38604 -0.05404,0.78191 -0.133475,1.64878 -0.17654,1.92639 l -0.07831,0.50474 h 5.827022 5.827015 z m -3.9899619,-5.38331 c -0.468103,-0.42558 -0.539644,-0.5625 -0.296065,-0.56658 0.176658,-0.003 0.321198,-0.12044 0.321198,-0.26106 0,-0.40656 0.488046,-0.4859 1.1885252,-0.19322 0.8240617,0.34431 0.8561939,0.69876 0.050363,0.55572 -0.4531118,-0.0804 -0.5082682,-0.065 -0.2294278,0.0643 0.2018948,0.0936 0.5529215,0.17598 0.7800532,0.18307 0.6592036,0.0206 0.4769266,0.37998 -0.1927241,0.37998 -0.3331223,0 -0.6954564,0.0898 -0.8051791,0.19951 -0.1436384,0.14363 -0.3723444,0.0423 -0.8167644,-0.36171 z M 93.65864,277.79395 c 0.0021,-0.40379 0.03961,-0.54736 0.08353,-0.31905 0.04391,0.22831 0.04225,0.55868 -0.0035,0.73416 -0.04592,0.17549 -0.08186,-0.0113 -0.07982,-0.41511 z m -1.030951,-5.70367 c -0.284397,-0.76475 -0.471765,-1.43577 -0.41638,-1.49115 0.112948,-0.11295 0.90358,1.59809 1.098295,2.37685 0.257433,1.02959 -0.181819,0.45907 -0.681915,-0.8857 z m -63.913468,-2.87779 c -0.21076,-0.32759 -0.5096,-0.80211 -0.664094,-1.05448 -0.154501,-0.25237 -0.534254,-0.55291 -0.843908,-0.66788 -0.475366,-0.17649 -0.583819,-0.1622 -0.696719,0.0918 -0.09538,0.21457 -0.171816,0.0903 -0.266638,-0.43337 -0.07311,-0.40379 -0.347975,-1.72529 -0.610811,-2.93667 -0.620391,-2.85931 -0.61847,-2.96866 0.05244,-2.98773 0.51209,-0.0146 0.54262,0.032 0.76946,1.17322 0.220396,1.1088 0.295316,1.23085 1.118767,1.82244 1.171114,0.84136 1.983535,2.4849 1.983535,4.01271 0,0.59839 -0.07315,1.00322 -0.170422,0.9431 -0.09373,-0.0579 -0.196969,0.0607 -0.229421,0.2636 -0.05133,0.32084 -0.108959,0.29129 -0.4422,-0.22671 z m 2.515611,-10.39782 c -0.178975,-0.11335 -0.218065,-0.35021 -0.132802,-0.80468 0.168986,-0.90078 0.505431,-1.14268 1.156962,-0.83182 0.57109,0.27248 0.789425,1.0853 0.413273,1.53854 -0.242928,0.29271 -1.043771,0.34729 -1.437433,0.098 z M 25.3348,296.48462 c 0,-0.75728 -0.01776,-0.75419 -0.440223,0.0765 -0.2932,0.5765 -0.290904,0.5965 0.0684,0.5965 0.30577,0 0.371796,-0.11952 0.371796,-0.67299 z M 14.652971,282.7037 c 0.185974,-0.37856 0.301545,-0.8533 0.256822,-1.05499 -0.06257,-0.28219 -0.158448,-0.17641 -0.415929,0.45885 -0.549224,1.35509 -0.431129,1.79757 0.159107,0.59614 z m 9.186111,-11.07635 c 0.707028,-0.24647 0.76063,-0.75763 0.110521,-1.05384 -0.601869,-0.27422 -0.576043,-0.28181 -0.680535,0.19997 -0.04925,0.22713 -0.150318,0.55751 -0.224572,0.73417 -0.157019,0.37355 -0.0014,0.39706 0.794586,0.1197 z m 16.084194,-15.90432 c -0.0014,-0.47949 -0.10889,-1.03699 -0.238189,-1.23888 -0.226563,-0.35376 -0.230996,-0.3521 -0.122188,0.0459 0.06465,0.23635 0.03108,0.41297 -0.07842,0.41297 -0.171074,0 -0.127676,0.72687 0.08494,1.42244 0.160606,0.52543 0.35675,0.16934 0.353864,-0.64241 z m 15.338909,-2.7531 c 0.631983,-0.98425 1.577865,-2.45029 2.101964,-3.25787 1.437196,-2.21458 1.431751,-2.20051 1.155533,-2.9886 -0.131519,-0.37523 -0.34237,-0.79138 -0.468554,-0.92477 -0.126184,-0.1334 -0.229428,-0.32411 -0.229428,-0.42381 0,-0.0997 -0.08259,-0.13021 -0.183539,-0.0678 -0.100948,0.0624 -0.18354,0.32192 -0.18354,0.57675 0,0.26331 -0.08969,0.43342 -0.207763,0.39406 -0.25805,-0.086 -1.260574,0.77281 -1.260574,1.07989 0,0.12393 -0.129958,0.29806 -0.288794,0.38694 -0.158837,0.0889 -0.388126,0.36143 -0.509531,0.60564 -0.121398,0.2442 -0.466355,0.52921 -0.766568,0.63335 -1.041537,0.36129 -2.105945,1.0126 -2.105945,1.28862 0,0.48578 0.49549,1.48616 1.210412,2.44377 0.720568,0.96517 0.893605,1.41852 0.60866,1.59463 -0.164234,0.1015 -0.237204,0.44875 -0.09429,0.44875 0.0401,0 0.589979,-0.80529 1.221962,-1.78953 z m -15.192149,0.51005 c -0.14746,-0.17744 -0.38069,0.43149 -0.272784,0.71221 0.08608,0.22394 0.139295,0.18507 0.228429,-0.1669 0.06389,-0.25237 0.08387,-0.49776 0.04433,-0.54531 z m 20.352683,-18.29617 c 0.184608,-0.16707 0.335655,-0.49957 0.335655,-0.73888 0,-0.42031 -0.01797,-0.42582 -0.528386,-0.16188 -0.612517,0.31674 -0.815411,0.70502 -0.521816,0.99861 0.268636,0.26864 0.316883,0.26203 0.714547,-0.0978 z m -26.736768,-0.98103 c 0.06236,-0.10095 -0.05661,-0.18355 -0.264474,-0.18355 -0.207853,0 -0.377921,0.0826 -0.377921,0.18355 0,0.10095 0.119018,0.18354 0.26448,0.18354 0.14547,0 0.315531,-0.0826 0.377915,-0.18354 z m -1.009474,-0.18355 c -0.359448,-0.23228 -0.602417,-0.23228 -0.458856,0 0.06236,0.10095 0.253097,0.18228 0.423803,0.18074 0.267471,-0.003 0.272313,-0.0274 0.03503,-0.18074 z m 1.218417,-0.64239 c -0.05813,-0.15142 -0.02567,-0.27531 0.07213,-0.27531 0.09778,0 0.177782,-0.0979 0.177782,-0.2176 0,-0.11968 0.185835,-0.42941 0.412974,-0.68828 l 0.412967,-0.47069 -0.535579,0.45886 c -0.760026,0.65115 -1.208067,1.08862 -1.208067,1.17956 0,0.0431 0.14454,0.11609 0.321198,0.16225 0.176658,0.0462 0.35068,0.0935 0.386718,0.10523 0.036,0.0117 0.01797,-0.1026 -0.0401,-0.25402 z m 1.081709,-0.0982 c 0.18594,-0.20546 0.451031,-0.33021 0.589098,-0.27723 0.138068,0.053 0.49377,-0.0831 0.790452,-0.30248 0.454381,-0.33594 0.80726,-0.40288 2.238366,-0.4246 0.934416,-0.0141 1.874811,-0.084 2.089769,-0.15524 0.222144,-0.0736 0.767747,-0.001 1.264159,0.16706 0.647584,0.21985 0.907368,0.24144 1.004972,0.0835 0.09731,-0.15746 0.313435,-0.13704 0.828869,0.0783 0.383471,0.16022 0.723656,0.26489 0.755954,0.23259 0.03233,-0.0323 -0.1461,-0.36016 -0.396443,-0.72857 -0.67835,-0.99828 -2.470652,-2.13097 -4.865774,-3.07504 l -0.933014,-0.36776 -1.054544,1.00587 c -1.11552,1.06403 -2.775589,3.20059 -1.79917,2.31559 0.841418,-0.76264 0.543647,-0.0324 -0.335009,0.82157 -0.454264,0.44149 -0.825935,0.8471 -0.825935,0.90134 0,0.21734 0.329037,0.0778 0.64825,-0.27494 z m 25.385223,-0.27748 c 0.252813,-0.55486 0.266964,-0.68877 0.05924,-0.56039 -0.228595,0.14128 -0.57299,-1.56139 -0.482559,-2.38574 0.292249,-2.66394 0.432328,-3.59491 0.570798,-3.79349 0.08681,-0.12448 0.110021,-0.76319 0.05161,-1.41935 -0.05841,-0.65617 -0.127017,-0.98654 -0.152414,-0.73417 -0.02539,0.25237 -0.08701,0.35805 -0.136936,0.23484 -0.187119,-0.46177 -0.773879,0.41981 -1.073614,1.61303 -0.425336,1.69328 -0.558325,1.85196 -1.027913,1.22645 -0.456559,-0.60815 -0.472771,-0.60914 -1.636864,-0.10085 -0.696407,0.30408 -0.894015,0.47416 -0.799665,0.68828 0.06889,0.15642 0.258286,0.65607 0.420814,1.11034 0.162527,0.45426 0.484862,1.13217 0.716309,1.50644 0.408118,0.66 2.880816,3.0821 3.146483,3.0821 0.07245,0 0.22759,-0.21037 0.344735,-0.46749 z m -0.139593,-7.34833 c 0.0088,-0.21382 0.0523,-0.2573 0.110895,-0.11089 0.053,0.1325 0.04648,0.2908 -0.0145,0.35179 -0.06098,0.061 -0.104375,-0.0474 -0.0964,-0.2409 z m -28.033047,7.34905 c -0.0598,-0.15577 -0.148049,-0.24387 -0.196158,-0.19575 -0.04814,0.0481 -0.03302,0.17556 0.03351,0.28322 0.18098,0.29284 0.286762,0.23595 0.162652,-0.0875 z m 0.367086,-0.36708 c -0.0598,-0.15578 -0.148056,-0.24386 -0.196165,-0.19576 -0.04807,0.0481 -0.03302,0.17557 0.03351,0.28324 0.180987,0.29283 0.286762,0.23594 0.162659,-0.0875 z m 12.726423,-0.11827 c -0.05862,-0.14642 -0.102078,-0.10293 -0.110888,0.11089 -0.008,0.19348 0.03545,0.30188 0.0964,0.2409 0.06098,-0.061 0.0675,-0.2193 0.0145,-0.35179 z m 2.562366,0.0722 c -0.187383,-0.0397 -0.420771,0.008 -0.518653,0.10575 -0.114925,0.11492 0.0055,0.1405 0.340691,0.0722 0.384151,-0.0783 0.430303,-0.12447 0.177962,-0.17796 z m 4.604221,0.0349 c -0.06098,-0.061 -0.2193,-0.0675 -0.35179,-0.0145 -0.14642,0.0586 -0.102925,0.10208 0.110888,0.11088 0.193487,0.008 0.301892,-0.0354 0.240902,-0.0964 z m -5.191064,-0.45767 c -0.279618,-0.10942 -0.217649,-0.14723 0.285145,-0.174 0.353316,-0.0188 0.497856,-0.072 0.321198,-0.11813 -0.176658,-0.0462 -0.321198,-0.15084 -0.321198,-0.23262 0,-0.0818 -0.199272,-0.18678 -0.442824,-0.23334 -0.359108,-0.0687 -0.429963,-0.0178 -0.374765,0.26875 0.06125,0.31788 -0.0071,0.34069 -0.680334,0.22697 -0.587669,-0.0993 -0.730752,-0.0729 -0.666258,0.12282 0.08768,0.26605 1.285914,0.49617 1.879036,0.36086 0.353981,-0.0807 0.353981,-0.0828 0,-0.22131 z m 7.700674,0.026 c 0.317021,-0.1168 0.284931,-0.19974 -0.348613,-0.901 -0.588356,-0.65123 -0.783417,-0.75886 -1.243889,-0.68629 -0.300359,0.0473 -0.767456,0.29814 -1.037993,0.55733 -0.270543,0.25919 -0.569966,0.46863 -0.665391,0.46542 -0.09542,-0.003 -0.01318,-0.1271 0.182783,-0.27531 0.19595,-0.14821 0.278549,-0.26764 0.18354,-0.2654 -0.095,0.002 -0.357777,0.14679 -0.583937,0.32121 -0.410429,0.31651 -0.409756,0.3172 0.35677,0.37004 0.422388,0.0291 0.865393,0.13379 0.984453,0.2326 0.11906,0.0988 0.371484,0.1302 0.560934,0.0697 0.31777,-0.1014 0.316015,-0.0861 -0.02261,0.19785 -0.350874,0.29418 -0.330618,0.30192 0.458856,0.17511 0.454263,-0.0729 0.983065,-0.19053 1.175109,-0.26129 z m -9.979643,-0.36494 c -0.105047,-0.19627 -0.281705,-0.41292 -0.392579,-0.48145 -0.110882,-0.0685 -0.05966,0.0921 0.113864,0.35686 0.367377,0.56069 0.557625,0.64574 0.278715,0.12459 z m 4.815994,-0.49769 c -0.124263,-0.0503 -0.372046,-0.0533 -0.550626,-0.007 -0.178579,0.0465 -0.07691,0.0877 0.225932,0.0914 0.302842,0.003 0.448957,-0.0343 0.324694,-0.0846 z m -1.655373,-0.18471 c -0.126184,-0.0509 -0.332671,-0.0509 -0.458855,0 -0.126185,0.0509 -0.02296,0.0926 0.229427,0.0926 0.252376,0 0.355613,-0.0417 0.229428,-0.0926 z m 3.648363,-0.38318 c 0.228304,-0.29112 0.221811,-0.2976 -0.0693,-0.0693 -0.305735,0.23978 -0.402957,0.3905 -0.251897,0.3905 0.03808,0 0.182652,-0.14454 0.321198,-0.32119 z m -6.095581,-0.29634 c -0.04204,-0.0368 -0.282961,-0.16525 -0.535337,-0.28544 -0.432654,-0.20605 -0.438509,-0.20223 -0.10257,0.0669 0.292381,0.23425 0.889783,0.4389 0.637907,0.21853 z m 15.750176,-0.22756 c -0.06098,-0.061 -0.219293,-0.0675 -0.35179,-0.0145 -0.146412,0.0586 -0.102924,0.10208 0.110895,0.11089 0.193481,0.008 0.301885,-0.0354 0.240895,-0.0964 z m -30.180524,-0.94451 c 0.128488,-0.66884 0.08863,-0.67371 -0.2785,-0.0341 -0.239826,0.41787 -0.254151,0.53878 -0.06382,0.53878 0.134959,0 0.289009,-0.22713 0.342341,-0.50474 z m 2.762229,-0.41296 c 0.127877,0 0.512874,-0.20686 0.855556,-0.45968 0.342681,-0.25282 1.107515,-0.5956 1.69963,-0.76174 1.370199,-0.38446 1.072546,-0.61189 -0.783036,-0.59829 -0.759166,0.006 -1.226193,0.0693 -1.041287,0.14218 0.295558,0.11646 0.273817,0.16327 -0.183547,0.39523 -1.019082,0.51687 -1.403774,0.91099 -1.420332,1.45514 -0.01582,0.52007 -0.0087,0.52415 0.312158,0.17965 0.180592,-0.19387 0.432974,-0.35249 0.560858,-0.35249 z m 5.015682,-0.59379 c 0.629597,0.18887 0.665593,0.18298 0.346338,-0.0565 -0.476712,-0.35772 -1.283389,-0.33877 -1.59432,0.0375 -0.229608,0.27783 -0.216629,0.28283 0.146732,0.0565 0.316577,-0.19714 0.543244,-0.20484 1.10125,-0.0375 z m 10.56066,-0.05 c -0.908846,-0.39486 -1.196066,-0.74353 -0.966243,-1.17296 0.164449,-0.30728 0.119317,-0.37287 -0.32348,-0.47012 -0.28303,-0.0622 -1.316451,-0.12488 -2.296491,-0.13938 -1.694116,-0.025 -2.141671,-0.20539 -0.949115,-0.38243 0.302842,-0.045 0.136236,-0.0524 -0.370243,-0.0165 -0.907666,0.0643 -2.588109,0.54271 -2.731157,0.77753 -0.04037,0.0662 0.5096,0.14708 1.222149,0.17959 0.712549,0.0325 1.592065,0.17158 1.954482,0.30904 0.362411,0.13746 1.237092,0.3439 1.943731,0.45873 0.706632,0.11484 1.532573,0.32009 1.835416,0.45611 0.302842,0.13601 0.715816,0.25077 0.917711,0.25502 0.248595,0.006 0.172177,-0.077 -0.23676,-0.25463 z m -16.35036,-0.22802 c 0.228297,-0.29111 0.221811,-0.29759 -0.0693,-0.0693 -0.305735,0.23978 -0.402964,0.3905 -0.251904,0.3905 0.03808,0 0.182652,-0.14454 0.321198,-0.3212 z m 5.516278,-0.50672 c 0.284452,-0.0169 0.517189,0.0405 0.517189,0.12769 0,0.0872 0.322224,0.13583 0.716059,0.10816 0.708006,-0.0497 0.715754,-0.0585 0.688284,-0.773 l -0.02782,-0.72269 -0.917711,-0.0241 c -1.270528,-0.0334 -1.693013,0.18678 -1.779483,0.92745 -0.04245,0.36385 6.94e-4,0.56373 0.107635,0.49768 0.09824,-0.0607 0.411351,-0.12424 0.69581,-0.14116 z m 17.364385,-1.33989 c 0.533962,-0.57429 1.441171,-1.74622 2.016035,-2.60428 0.574856,-0.85805 1.129103,-1.62984 1.231666,-1.71507 0.108093,-0.0898 0.04516,-0.10912 -0.149742,-0.0459 -0.184913,0.06 -0.409527,0.10908 -0.499146,0.10908 -0.08961,0 -0.590777,0.63404 -1.113689,1.40896 -0.522912,0.77492 -1.486151,2.02286 -2.140533,2.77318 -0.941415,1.07944 -1.098525,1.33854 -0.752604,1.2412 0.240451,-0.0676 0.874057,-0.5929 1.408013,-1.16718 z m -1.03082,-0.21823 c 0.444816,-0.55522 1.333884,-1.75282 1.975724,-2.66136 0.641834,-0.90853 1.25517,-1.70906 1.362957,-1.77894 0.107794,-0.0699 0.215235,-0.42799 0.238765,-0.79579 0.07393,-1.15576 0.833468,-1.57677 1.480761,-0.82079 0.172863,0.20189 0.440486,0.37361 0.59471,0.38157 0.184663,0.01 0.203005,0.0458 0.05369,0.10616 -0.354163,0.14321 0.193209,1.04618 1.053052,1.73717 0.493118,0.39628 0.7402,0.74512 0.753408,1.06368 0.01373,0.33122 0.07313,0.23477 0.197136,-0.32014 0.144505,-0.6466 0.103618,-1.03879 -0.220056,-2.11073 -0.527365,-1.74654 -1.503139,-3.57789 -2.343385,-4.39809 l -0.681784,-0.66552 -0.05272,0.81007 c -0.104132,1.60077 -0.743689,2.70634 -1.874499,3.24032 -0.544049,0.25692 -3.633039,2.8441 -5.125336,4.29273 l -0.445023,0.432 0.700069,1.1568 c 0.74464,1.23044 1.192223,1.70398 1.397621,1.47869 0.06937,-0.0761 0.490065,-0.59262 0.934874,-1.14783 z m 6.300411,0.73416 c -0.06236,-0.10094 -0.211808,-0.18227 -0.332033,-0.18073 -0.131346,0.001 -0.108703,0.0738 0.05674,0.18073 0.352609,0.22788 0.416145,0.22788 0.275317,0 z m -11.792562,-0.30509 c -0.126184,-0.0509 -0.332671,-0.0509 -0.458856,0 -0.126184,0.0509 -0.02296,0.0926 0.229428,0.0926 0.252369,0 0.355612,-0.0416 0.229428,-0.0926 z m -0.917711,-0.18354 c -0.126185,-0.0509 -0.332672,-0.0509 -0.458856,0 -0.126184,0.0509 -0.02296,0.0926 0.229428,0.0926 0.252375,0 0.355612,-0.0417 0.229428,-0.0926 z m -0.829757,-0.17288 c -0.06098,-0.061 -0.2193,-0.0675 -0.35179,-0.0145 -0.14642,0.0586 -0.102931,0.10209 0.110888,0.11089 0.19348,0.008 0.301885,-0.0354 0.240902,-0.0964 z m -1.005659,-0.19421 c -0.126184,-0.0509 -0.332671,-0.0509 -0.458856,0 -0.126184,0.0509 -0.02296,0.0926 0.229428,0.0926 0.252369,0 0.355612,-0.0416 0.229428,-0.0926 z m 16.156706,-1.17192 c -0.0521,-0.19924 -0.415201,-0.61607 -0.806872,-0.92628 -0.576243,-0.4564 -0.732472,-0.51102 -0.818734,-0.28623 -0.153419,0.39981 0.422291,1.50851 0.896054,1.72562 0.502864,0.23044 0.858567,-0.0198 0.729552,-0.51311 z m -29.310525,-1.36548 c 0.134869,-0.20585 0.339657,-0.81457 0.455068,-1.35274 0.18388,-0.85738 0.286846,-1.01064 0.832088,-1.23845 1.151218,-0.48102 1.408033,-0.42559 1.595645,0.34438 0.197392,0.81009 -0.0021,1.15428 -0.767393,1.32232 -0.413065,0.0907 -0.55972,0.2812 -0.803563,1.04371 l -0.298278,0.93275 0.678586,-0.1122 c 0.373225,-0.0617 0.826031,-0.1131 1.006241,-0.11421 0.271931,-0.001 0.293852,-0.0652 0.128876,-0.37344 -0.151636,-0.28334 -0.13659,-0.4336 0.06347,-0.63365 0.144234,-0.14424 0.309259,-0.21522 0.366725,-0.15776 0.171698,0.17169 3.609848,-0.29368 4.111491,-0.55651 0.257634,-0.13499 0.803771,-0.84766 1.227706,-1.60206 l 0.76364,-1.35892 1.69028,-0.0528 c 1.278949,-0.04 1.693096,0.005 1.701857,0.18355 0.0062,0.12997 0.02698,0.77317 0.04585,1.42934 l 0.03427,1.19302 2.363745,0.42694 c 1.300059,0.23483 2.543845,0.38175 2.76397,0.3265 0.220132,-0.0552 0.981816,-0.66035 1.692638,-1.34466 1.859675,-1.79032 3.914467,-3.33785 4.603624,-3.46714 0.493881,-0.0927 0.630984,-0.23056 0.804305,-0.80905 0.324035,-1.08153 0.101426,-1.53361 -1.309465,-2.65934 -1.283403,-1.02401 -1.687623,-1.46515 -0.824013,-0.8993 0.252369,0.16536 0.458856,0.22111 0.458856,0.12388 0,-0.0972 -0.351027,-0.33222 -0.780054,-0.52221 -0.429033,-0.18999 -1.316915,-0.64475 -1.973073,-1.01057 -1.260886,-0.70296 -2.625209,-1.21803 -4.58855,-1.7323 -2.752517,-0.72099 -6.36258,0.0169 -9.380916,1.91752 -2.32184,1.46202 -3.610404,2.67423 -5.233956,4.92382 -1.573377,2.18009 -2.190577,3.31288 -2.924895,5.3683 -0.270481,0.75712 -0.607536,1.60319 -0.749003,1.88019 -0.245612,0.48089 -0.206293,0.46867 0.870859,-0.27052 0.620446,-0.42578 1.238437,-0.94257 1.373307,-1.14841 z m 12.87468,1.44681 c -0.06098,-0.061 -0.219292,-0.0675 -0.351789,-0.0145 -0.146413,0.0586 -0.102925,0.10207 0.110895,0.11088 0.19348,0.008 0.301885,-0.0354 0.240894,-0.0964 z m 14.410896,-0.71504 c -0.04821,-0.25237 -0.119386,-0.45886 -0.158094,-0.45886 -0.03871,0 -0.07037,0.20649 -0.07037,0.45886 0,0.25237 0.07114,0.45885 0.158087,0.45885 0.08695,0 0.118616,-0.20648 0.07038,-0.45885 z m -26.395543,-0.45888 c 0.0573,-0.20189 0.151005,-0.53227 0.208284,-0.73416 0.05744,-0.20241 0.01651,-0.36709 -0.09125,-0.36709 -0.219175,0 -0.738514,1.11672 -0.618844,1.33068 0.143118,0.25588 0.397068,0.13978 0.50181,-0.22943 z m 11.125769,-1.34061 c 0.0555,-0.48083 0.06236,-0.91275 0.01526,-0.95983 -0.138955,-0.13896 -2.118626,-0.0921 -2.318689,0.0549 -0.189832,0.13947 -1.009475,1.7834 -1.009475,2.02468 0,0.075 0.722692,0.0504 1.605988,-0.0546 l 1.605988,-0.19092 0.100892,-0.87424 z m 13.516625,-5.76813 c -0.04655,-0.17858 -0.08767,-0.0769 -0.09141,0.22593 -0.0035,0.30284 0.03434,0.44895 0.08461,0.32469 0.05029,-0.12427 0.05335,-0.37205 0.0069,-0.55062 z"
         style="fill:#000000;stroke-width:0.1835418" />
    </g>
  </g>
</svg>
