<?xml version="1.0" encoding="UTF-8" standalone="no"?>
<!-- Created with Inkscape (http://www.inkscape.org/) -->

<svg
   xmlns:dc="http://purl.org/dc/elements/1.1/"
   xmlns:cc="http://creativecommons.org/ns#"
   xmlns:rdf="http://www.w3.org/1999/02/22-rdf-syntax-ns#"
   xmlns:svg="http://www.w3.org/2000/svg"
   xmlns="http://www.w3.org/2000/svg"
   xmlns:sodipodi="http://sodipodi.sourceforge.net/DTD/sodipodi-0.dtd"
   xmlns:inkscape="http://www.inkscape.org/namespaces/inkscape"
   width="2000"
   height="2000"
   viewBox="0 0 529.16665 529.16668"
   version="1.1"
   id="svg8"
   inkscape:version="0.92.4 (5da689c313, 2019-01-14)"
   sodipodi:docname="rudolf_gun.svg">
  <defs
     id="defs2" />
  <sodipodi:namedview
     id="base"
     pagecolor="#ffffff"
     bordercolor="#666666"
     borderopacity="1.0"
     inkscape:pageopacity="0.0"
     inkscape:pageshadow="2"
     inkscape:zoom="0.35"
     inkscape:cx="676.03169"
     inkscape:cy="977.60165"
     inkscape:document-units="mm"
     inkscape:current-layer="layer1"
     showgrid="false"
     units="px"
     inkscape:window-width="1920"
     inkscape:window-height="1017"
     inkscape:window-x="-8"
     inkscape:window-y="-8"
     inkscape:window-maximized="1" />
  <metadata
     id="metadata5">
    <rdf:RDF>
      <cc:Work
         rdf:about="">
        <dc:format>image/svg+xml</dc:format>
        <dc:type
           rdf:resource="http://purl.org/dc/dcmitype/StillImage" />
        <dc:title></dc:title>
      </cc:Work>
    </rdf:RDF>
  </metadata>
  <g
     inkscape:label="Layer 1"
     inkscape:groupmode="layer"
     id="layer1"
     transform="translate(0,232.16668)">
    <path
       style="fill:#000000;stroke-width:0.88674611"
       d="m 344.29326,297.5292 c -0.9896,-3.65736 -0.73201,-11.36302 0.56622,-16.93768 0.56038,-2.40635 0.5104,-2.43852 -3.78821,-2.43852 -3.74856,0 -5.64884,-0.76509 -13.62625,-5.48605 -8.58998,-5.08352 -10.99012,-7.21433 -32.71127,-29.04096 -24.66998,-24.78978 -42.80985,-45.10254 -49.5431,-55.47775 -5.93532,-9.14562 -11.65036,-16.4048 -12.91525,-16.4048 -1.89159,0 -9.42577,-11.12498 -9.42577,-13.9181 0,-0.72744 -0.77117,-1.52427 -1.71374,-1.77077 -1.90283,-0.49761 -6.26698,-6.55575 -6.26698,-8.69959 0,-0.75408 -0.97671,-1.74243 -2.17048,-2.19629 -2.80042,-1.06473 -4.86819,-4.2676 -5.5325,-8.56961 -0.29023,-1.8805 -1.09904,-4.55248 -1.79708,-5.93769 -0.69805,-1.38523 -1.03167,-3.13758 -0.74135,-3.89408 0.41648,-1.08541 0.26978,-1.1614 -0.69542,-0.36035 -0.67276,0.55836 -3.17589,1.38198 -5.56247,1.83028 -4.77492,0.89688 -3.9652,1.04472 -34.04523,-6.21462 -18.10068,-4.36829 -18.19248,-4.40261 -21.50358,-8.03491 -1.82893,-2.0063 -3.3253,-4.15066 -3.3253,-4.76522 0,-0.92625 3.72702,-2.23825 7.53736,-2.6533 0.4877,-0.0533 1.68482,-0.35485 2.66023,-0.67049 0.97542,-0.31571 4.5604,-0.8044 7.96659,-1.08616 3.40623,-0.28186 6.53838,-0.8575 6.96037,-1.27949 1.94249,-1.94248 -3.08792,-7.835633 -11.40438,-13.360249 -5.00972,-3.32795 -8.39968,-6.768618 -8.39968,-8.525353 0,-1.431084 0.11595,-1.417687 1.33077,0.153485 1.31512,1.701053 1.34377,1.700445 2.43851,-0.05229 1.66496,-2.665465 2.43769,-6.97655 1.4305,-7.980718 -0.59358,-0.591762 -1.60633,-0.05936 -3.04462,1.601275 -1.18535,1.368416 -2.15516,2.14196 -2.15516,1.719038 0,-1.430205 3.60531,-4.650377 5.20659,-4.650377 0.87481,0 2.83088,1.543427 4.34687,3.429881 1.51597,1.886398 3.57794,3.644727 4.58215,3.907309 2.53519,0.662995 2.27956,0.04252 -0.61277,-1.487752 -1.34119,-0.709511 -3.23658,-2.51428 -4.21203,-4.010583 -3.6864,-5.654925 -10.77588,-1.755069 -10.48474,5.767566 0.11127,2.871984 -0.18601,3.92127 -1.11067,3.92127 -0.96256,0 -1.26238,1.369023 -1.26238,5.763842 0,3.251408 0.38652,5.763854 0.88674,5.763854 0.4877,0 0.88673,-2.171131 0.88673,-4.824771 0,-7.556777 3.37213,-7.781738 4.37177,-0.291567 0.53776,4.029389 2.09017,5.114592 2.56218,1.791089 0.3509,-2.470573 1.56556,-2.566099 2.82025,-0.221533 0.52206,0.975421 1.57182,1.773472 2.33287,1.773472 1.85683,0 6.30811,3.240376 7.49325,5.454844 0.76273,1.425168 0.62848,2.030418 -0.66689,3.005908 -0.89202,0.67177 -2.31663,1.01235 -3.16575,0.75682 -0.84913,-0.25538 -2.04623,-0.14578 -2.66024,0.24434 -0.614,0.38977 -2.11394,0.79365 -3.33324,0.89749 -1.21926,0.10392 -3.61348,0.41578 -5.32046,0.69318 -1.70698,0.2775 -4.30072,0.63957 -5.76385,0.80487 -1.46315,0.16522 -3.95478,0.9849 -5.53697,1.82132 -1.5822,0.83642 -3.77689,1.39297 -4.87713,1.23676 -1.68016,-0.23863 -2.04526,-0.91314 -2.28091,-4.21401 -0.15752,-2.20809 0.3671,-5.625831 1.19761,-7.800509 1.57531,-4.124904 1.50339,-5.686226 -0.82793,-17.975513 -1.86044,-9.806965 -1.77024,-9.620862 -5.39713,-11.136267 -4.14022,-1.729905 -4.14719,-3.938432 -0.0134,-3.938432 1.93264,0 3.10362,-0.428785 3.10362,-1.13651 0,-1.5812 9.11816,-4.03241 15.96141,-4.29087 1.70702,-0.0643 6.89448,-0.67117 11.52773,-1.348205 4.63323,-0.677033 13.21251,-1.797973 19.06505,-2.49095 5.85251,-0.693028 18.53898,-2.289934 28.19214,-3.548683 9.65322,-1.25879 19.82862,-2.466566 22.61205,-2.684008 2.78345,-0.217506 6.85647,-0.792017 9.05116,-1.276877 2.19472,-0.484862 6.42477,-0.898972 9.4002,-0.920182 2.9754,-0.02009 6.56673,-0.420582 7.98071,-0.887439 3.78192,-1.248627 58.71156,-8.053544 69.26422,-8.5807 l 9.05488,-0.452386 3.35959,3.19346 c 1.84778,1.756379 4.04161,3.83296 4.87519,4.614587 1.39053,1.303901 2.15904,1.301046 9.31083,-0.03421 4.28738,-0.800469 16.574,-2.666099 27.30365,-4.145878 10.72964,-1.479821 20.832,-3.112054 22.44977,-3.627183 1.61772,-0.51515 3.10464,-0.773321 3.30422,-0.573738 0.19974,0.199749 -0.37521,2.334341 -1.27732,4.743823 -0.90215,2.409452 -1.92576,6.376027 -2.27465,8.814603 -0.34889,2.438534 -1.23652,5.106879 -1.97255,5.929639 -1.4343,1.603377 -0.91318,3.38117 0.99109,3.38117 0.77926,0 1.13389,1.153515 1.07265,3.489063 -0.0504,1.918997 -0.3546,3.06336 -0.67616,2.543067 -0.33993,-0.550045 -0.83475,-0.157855 -1.1822,0.936742 -0.32878,1.035513 -0.31068,2.346977 0.0403,2.914419 0.38166,0.617538 0.25237,0.79353 -0.32241,0.438441 -1.1621,-0.718225 -2.34745,2.54515 -1.4512,3.9953 0.42602,0.689266 0.24767,0.79078 -0.53684,0.305991 -0.85988,-0.531444 -1.01804,-0.318391 -0.59053,0.795808 0.32979,0.859487 0.22186,1.297857 -0.24835,1.007353 -1.13994,-0.704513 -2.69159,2.425436 -2.70813,5.462643 -0.0108,1.767376 -0.23963,2.139825 -0.7876,1.274811 -0.42573,-0.672118 -1.21768,-0.947837 -1.75992,-0.612716 -1.22694,0.758304 -1.29307,3.757111 -0.0993,4.495009 1.85622,1.147208 0.72426,3.455574 -3.95073,8.056458 -3.24198,3.190606 -5.15092,5.924943 -5.78794,8.290619 -0.52276,1.94142 -1.37639,3.79305 -1.89693,4.11478 -0.52056,0.32175 -2.06814,3.08494 -3.43909,6.14051 -1.37094,3.05557 -2.90179,5.80848 -3.40189,6.11756 -1.94383,1.20133 -1.81993,-1.27631 0.29058,-5.80977 1.21402,-2.60783 2.21119,-6.18407 2.21596,-7.94721 0.002,-1.76315 0.74724,-4.15739 1.64996,-5.320485 2.79045,-3.595467 4.01072,-6.447709 3.82993,-8.952062 -0.12704,-1.760173 0.54154,-2.932288 2.49809,-4.378786 2.69592,-1.993194 3.35281,-4.511867 1.81213,-6.948497 -0.58348,-0.922865 -0.33381,-1.850752 0.83462,-3.103607 2.3214,-2.488905 3.29862,-6.664318 1.55971,-6.664318 -1.89054,0 -2.98748,1.708053 -3.70164,5.763844 -0.34353,1.950833 -1.29317,4.544583 -2.1103,5.763853 -0.81713,1.219291 -2.517,4.189958 -3.77745,6.601508 -1.26046,2.41153 -2.70281,4.521652 -3.20526,4.689131 -0.50243,0.167577 -1.95382,-1.821799 -3.22526,-4.420615 -2.46597,-5.040187 -6.95379,-9.113271 -9.12373,-8.280606 -1.32935,0.510107 -4.35597,-2.074553 -6.18995,-5.286022 -0.84406,-1.477995 -1.18131,-1.547746 -2.43855,-0.504358 -0.95078,0.789038 -1.45905,0.864146 -1.45905,0.215494 0,-0.547395 0.4093,-0.995289 0.90955,-0.995289 0.52131,0 0.33212,-1.11661 -0.44342,-2.616228 -0.74407,-1.438895 -1.3529,-3.434061 -1.3529,-4.433708 0,-1.347536 -0.57322,-1.817546 -2.21682,-1.817546 -1.21929,0 -2.22639,0.299283 -2.23802,0.66507 -0.0108,0.365775 -0.38204,2.220761 -0.82313,4.122224 -0.72974,3.145899 -0.57429,3.684783 1.72644,5.985538 1.59341,1.593404 2.06174,2.528364 1.26648,2.528364 -0.69404,0 -1.26192,0.705453 -1.26192,1.567658 0,0.862193 -1.01196,3.056885 -2.24883,4.877112 -2.11171,3.107631 -2.14313,3.309442 -0.51589,3.309442 0.95313,0 2.3164,0.223888 3.0295,0.497535 0.87634,0.336292 2.04943,-0.849502 3.6195,-3.658678 2.74486,-4.911098 2.81407,-5.447933 0.77114,-5.981786 -1.21119,-0.316386 -1.13008,-0.428129 0.3695,-0.508425 1.32437,-0.07116 2.15755,0.605915 2.68172,2.178453 0.65059,1.951735 0.24232,2.845647 -2.82584,6.187547 -3.06013,3.333114 -4.03899,3.876556 -6.67208,3.704184 -1.6972,-0.110929 -3.37898,-0.601011 -3.73728,-1.088717 -0.42098,-0.57298 -0.65628,-0.543181 -0.66507,0.08407 -0.006,0.534058 0.76843,1.678695 1.72419,2.543643 2.47214,2.237248 5.60305,1.16796 9.01627,-3.079307 1.56418,-1.946398 3.60697,-3.538929 4.53951,-3.538929 1.43562,0 1.60278,-0.42238 1.09035,-2.755457 -0.53687,-2.444398 -0.4298,-2.657254 0.94867,-1.885845 2.82184,1.579177 2.47783,6.12899 -0.88145,11.659041 -1.68534,2.774343 -3.88161,5.783976 -4.88059,6.688041 -2.25678,2.042357 -2.32479,3.689309 -0.17563,4.251359 2.0478,0.53549 5.46236,-1.950695 5.845,-4.25585 0.15785,-0.951612 0.78193,-1.614173 1.38663,-1.472262 0.67851,0.159191 0.89191,-0.282866 0.55742,-1.154487 -0.35709,-0.930642 -0.19169,-1.195881 0.48527,-0.777547 0.67659,0.418127 0.8425,0.15316 0.48593,-0.775867 -0.29761,-0.775898 0.062,-1.911423 0.7992,-2.523336 0.73731,-0.611881 1.86,-2.336983 2.49487,-3.83349 l 1.15432,-2.720929 0.69067,2.592003 c 0.57304,2.150498 0.31571,2.9057 -1.51004,4.433741 -1.21039,1.012945 -3.10268,3.343701 -4.205,5.179483 -1.10238,1.835728 -3.73735,4.530091 -5.85551,5.987411 -2.11815,1.45733 -4.0973,3.42512 -4.3981,4.37288 -0.30094,0.94773 -2.72162,3.7107 -5.37962,6.13999 -2.65799,2.42922 -4.83274,5.07143 -4.83274,5.87153 0,2.20824 7.74693,17.82776 12.31758,24.83492 2.22683,3.41399 5.92095,8.04564 8.20911,10.29256 l 4.1603,4.08537 0.29258,10.98933 c 0.28421,10.67041 0.22556,11.07939 -2.01625,14.09294 -1.26987,1.70699 -3.43802,6.40757 -4.81809,10.4457 -1.38006,4.03814 -2.98142,7.73403 -3.55861,8.21301 -1.62036,1.34482 -18.99408,-12.08453 -35.26716,-27.26044 -13.27649,-12.38131 -25.22046,-25.21394 -29.96634,-32.19584 -1.16299,-1.71097 -3.01239,-4.00543 -4.10975,-5.09878 -1.09735,-1.09336 -1.99518,-2.54058 -1.99518,-3.21608 0,-0.67546 -0.99756,-1.88176 -2.21686,-2.68069 -1.21927,-0.79889 -2.21685,-2.07323 -2.21685,-2.83184 0,-0.75863 -1.59613,-3.00761 -3.547,-4.99779 -1.95083,-1.99013 -3.54698,-3.97435 -3.54698,-4.40934 0,-0.43495 -1.29685,-1.33422 -2.88194,-1.99832 -1.58503,-0.66409 -3.81913,-2.20778 -4.96468,-3.43045 -1.14554,-1.2226 -3.34022,-2.73064 -4.87711,-3.3511 -1.53689,-0.62048 -4.19096,-2.02692 -5.89793,-3.12545 -2.72423,-1.75315 -4.29596,-2.00301 -12.85783,-2.04403 -5.36482,-0.0268 -11.05106,-0.0603 -12.63612,-0.0771 -3.4595,-0.0364 -3.87687,1.56296 -0.51177,1.96132 1.30358,0.15416 2.47077,0.78936 2.59375,1.4112 0.12299,0.62184 0.02,0.72157 -0.22723,0.22153 -0.77689,-1.56645 -6.54844,-1.00755 -8.92849,0.86458 -2.57012,2.02168 -0.72738,2.41959 1.92271,0.41518 2.16683,-1.6389 5.81607,-1.69837 5.81607,-0.0948 0,0.79366 -0.72383,1.06879 -2.11296,0.80326 -2.62569,-0.50193 -3.86059,1.26353 -2.10902,3.01515 1.15332,1.15332 1.48101,1.13572 2.76515,-0.14847 1.07817,-1.07817 1.473,-1.15227 1.51913,-0.28521 0.0343,0.64448 0.40526,0.37372 0.82444,-0.60173 0.56742,-1.32051 0.778,-1.41224 0.82438,-0.3591 0.0714,1.62258 -1.5853,3.18356 -6.52356,6.14608 -2.13382,1.28014 -3.19933,1.59427 -2.75152,0.81128 0.40194,-0.70277 -0.14145,-0.37995 -1.20764,0.71742 -1.06618,1.09733 -2.28934,1.99517 -2.71816,1.99517 -0.42882,0 -1.47631,0.26746 -2.32777,0.59405 -1.13864,0.43693 -1.35611,0.28354 -0.82224,-0.58037 0.48655,-0.78728 0.38356,-0.96291 -0.31237,-0.53278 -0.57099,0.35292 -0.7931,1.03825 -0.49351,1.523 0.29963,0.48473 -0.14176,1.64008 -0.98119,2.5674 -1.40849,1.55642 -1.41923,1.95258 -0.13974,5.14997 0.76226,1.90517 1.20037,4.21384 0.97354,5.13036 -0.56352,2.27687 2.68714,7.28726 5.39602,8.31719 1.21902,0.46346 2.21646,1.45966 2.21646,2.21374 0,2.00858 4.30863,8.18378 6.04527,8.66418 0.82061,0.2269 2.24768,2.36146 3.17121,4.74323 1.69956,4.38308 6.27014,10.09432 8.07831,10.09432 1.04067,0 3.59996,3.39479 12.36748,16.40481 8.28907,12.30009 24.83518,30.88463 49.89983,56.04744 19.76758,19.84504 24.02808,23.67554 31.5205,28.33941 7.18275,4.4711 9.56974,5.49531 13.96626,5.99275 5.96999,0.67543 5.99807,0.72975 4.34971,8.4158 -0.64564,3.01038 -0.67701,6.24304 -0.0972,10.01957 1.01999,6.64479 0.68167,7.68122 -0.76366,2.33949 z m 8.46469,-104.59695 c 1.46313,-4.13057 3.57691,-8.78045 4.69727,-10.33309 1.91383,-2.65222 2.01596,-3.47615 1.68834,-13.62303 -0.34497,-10.68564 -0.37657,-10.82449 -2.98375,-13.10554 -4.81605,-4.21361 -15.37293,-19.42552 -15.37293,-22.15155 0,-1.38643 -0.60279,-1.2511 -3.36123,0.75459 -1.32144,0.96083 -4.02367,1.99747 -6.00493,2.30357 -3.57921,0.55303 -3.60908,0.53407 -4.65544,-2.95831 -1.53764,-5.1322 -1.33644,-6.08024 1.54344,-7.27312 2.8534,-1.18192 3.91538,-2.98993 3.15794,-5.37643 -0.44742,-1.40976 -1.75323,-2.13881 -7.0846,-3.9555 -1.529,-0.52103 -1.31401,-0.79048 1.55952,-1.95452 6.23698,-2.52662 5.2821,-8.24834 -1.37655,-8.24834 -4.81917,0 -6.98617,-1.95771 -5.83195,-5.26874 0.47221,-1.35467 0.73934,-5.212524 0.59354,-8.573017 -0.2433,-5.612364 -0.4315,-6.133611 -2.309,-6.399794 -2.40046,-0.340274 -4.47953,1.170205 -5.57438,4.04987 -0.75707,1.991177 -0.85844,2.010073 -3.05678,0.569683 -2.53856,-1.663346 -3.53154,-1.107832 -4.41466,2.46964 -0.45888,1.858996 -0.18029,2.581741 1.3009,3.374432 1.03663,0.554778 2.6678,0.760224 3.62483,0.456475 1.3576,-0.430896 1.73996,-0.136736 1.73996,1.339279 0,1.040332 0.41309,2.663402 0.91796,3.606742 0.68655,1.28278 0.63065,1.71213 -0.22154,1.70309 -2.85546,-0.0302 -5.13,-1.20825 -5.13,-2.65669 0,-2.18084 -2.607,-2.974747 -4.4101,-1.34295 -2.06832,1.87181 -2.4617,1.72153 -3.09987,-1.184108 -0.30633,-1.394581 -1.74914,-3.677846 -3.2063,-5.073902 -3.58482,-3.434464 -5.58392,-2.239092 -5.96193,3.56504 -0.47169,7.24198 3.54648,10.56751 8.54129,7.069 2.26396,-1.5857 4.58992,-1.11038 4.58992,0.93802 0,1.7048 0.42782,1.6995 3.07972,-0.0382 1.96872,-1.28997 2.44638,-1.25629 6.28874,0.44337 2.76171,1.22162 6.0196,1.83936 9.70074,1.83936 6.33684,0 8.3226,1.30178 6.67679,4.37705 -0.92006,1.71907 -2.42215,2.25947 -5.21598,1.8764 -0.65743,-0.0902 -1.97278,0.53972 -2.923,1.39964 -1.0173,0.92065 -3.00541,1.5273 -4.83527,1.47542 -1.98321,-0.0563 -2.98373,0.28153 -2.76522,0.93385 0.2326,0.69383 2.63917,0.92291 7.49563,0.71347 6.34147,-0.27347 7.36659,-0.0952 9.03378,1.57215 2.65551,2.65549 1.14856,5.19292 -3.52817,5.94077 -1.94624,0.31135 -3.73708,0.8869 -3.97958,1.27932 -0.24266,0.39243 -0.0932,2.26129 0.33179,4.1531 l 0.77285,3.43959 -5.8544,0.0627 c -8.29803,0.0889 -13.39174,-2.8269 -13.39174,-7.66567 0,-2.94335 -2.96429,-9.98963 -4.86677,-11.56855 -2.31036,-1.91742 -1.6383,-5.12944 1.40221,-6.70174 1.50842,-0.78005 2.54065,-1.62026 2.29378,-1.8671 -0.24702,-0.247 -1.56369,0.28153 -2.92631,1.17381 -1.48203,0.97066 -4.09601,1.62264 -6.50573,1.62264 h -4.02829 l -0.64241,5.81486 c -0.35335,3.19818 -1.40836,9.78226 -2.34447,14.63133 -1.23929,6.41939 -1.45252,9.29863 -0.78426,10.5899 3.26849,6.31598 31.37238,35.15758 44.94474,46.12453 9.42905,7.61903 18.09622,13.69749 19.12497,13.41266 0.4877,-0.13506 2.08385,-3.62504 3.54696,-7.75562 z m -61.41556,-89.45622 c -1.5868,-2.54086 -1.38876,-8.422709 0.33179,-9.850539 1.23303,-1.023304 1.72432,-0.847993 3.54066,1.263638 3.66275,4.258234 3.80372,9.048691 0.30061,10.216421 -0.85734,0.28589 -0.76765,-0.0664 0.28522,-1.11899 0.84477,-0.84481 1.53594,-1.72681 1.53594,-1.96005 0,-0.99709 -2.64955,-5.43047 -3.83188,-6.411718 -1.07944,-0.895843 -1.34938,-0.548595 -1.6632,2.139455 -0.20612,1.764881 0.12434,4.170613 0.73418,5.346083 1.33211,2.56767 0.3271,2.87389 -1.23302,0.3757 z m 23.95022,-8.879488 c 0.13406,-3.479971 0.57337,-5.588152 1.10874,-5.32046 1.03317,0.51656 0.63409,7.803205 -0.53424,9.754169 -0.51301,0.856737 -0.71747,-0.721172 -0.5745,-4.433709 z m -31.07698,32.306128 c 1.66022,-9.17576 1.78986,-17.80514 0.26277,-17.49432 -1.07568,0.21885 -5.20677,23.84031 -4.49417,25.69729 1.17678,3.06675 2.74086,0.0346 4.23131,-8.20297 z m 36.25572,5.2846 c 1.00441,-1.21025 0.93473,-1.60802 -0.46055,-2.62826 -0.90423,-0.66122 -2.08627,-1.4161 -2.62677,-1.67756 -0.67012,-0.32409 -0.61428,-0.64512 0.17562,-1.00919 0.63699,-0.29358 1.94607,-1.37956 2.90906,-2.4132 1.5023,-1.61252 2.00674,-1.71956 3.5527,-0.75412 2.27761,1.42238 5.43399,0.50286 5.05763,-1.47336 -0.23293,-1.22293 -1.80011,-1.55207 -9.1396,-1.91944 -7.29667,-0.36518 -9.45617,-0.81495 -12.24865,-2.55099 -2.57548,-1.60112 -3.63788,-1.85996 -4.42075,-1.07705 -2.11019,2.11017 2.58819,7.10815 9.58444,10.19567 0.49541,0.21852 0.30365,0.79585 -0.43479,1.30795 -0.94663,0.65656 -1.88115,0.54995 -3.29411,-0.37587 -4.26569,-2.79499 -5.19936,-0.62446 -1.42568,3.31441 2.01138,2.09948 3.10011,2.48707 6.98539,2.48707 3.14707,0 4.97693,-0.45098 5.78617,-1.42606 z m -42.01976,-8.40085 c 1.46075,-7.79102 1.46968,-15.00195 0.02,-15.00195 -1.23444,0 -4.22085,16.92777 -3.48717,19.76635 0.79651,3.08161 2.4141,0.85973 3.46857,-4.7644 z m -81.94731,-1.80976 c 2.05334,-1.03538 3.85905,-1.99243 4.01273,-2.12679 0.15383,-0.13438 -0.84394,-2.04098 -2.21687,-4.23694 -4.19602,-6.71136 -11.56383,-13.73044 -20.5418,-19.569509 -4.70626,-3.060878 -9.10451,-6.234735 -9.77384,-7.053037 -1.59887,-1.954686 -5.62006,-1.895761 -8.1079,0.118641 l -1.98405,1.60658 4.58842,4.344322 c 4.05791,3.841994 4.55787,4.70716 4.32435,7.482573 -0.24398,2.89763 -0.50206,3.15442 -3.36767,3.34904 -4.85335,0.32945 -18.89519,2.08033 -20.61685,2.57052 -0.85347,0.24298 -1.55179,0.83304 -1.55179,1.31116 0,1.43942 4.57542,5.21835 6.31821,5.21835 0.89404,0 5.73954,1.18877 10.76781,2.64168 5.02822,1.45293 13.89843,3.26514 19.71152,4.02721 5.81306,0.76202 10.75217,1.56841 10.97578,1.79202 0.90337,0.90339 3.93087,0.30465 7.46195,-1.47592 z m 74.22966,-8.1014 c 0,-3.19299 -0.32377,-5.09703 -0.78276,-4.60307 -0.8687,0.9349 -1.86626,9.86889 -1.17871,10.5564 1.21227,1.21228 1.96147,-1.06171 1.96147,-5.95333 z m -55.42164,3.77665 c 0.69361,-1.12225 -0.48029,-1.12225 -2.21686,0 -1.1463,0.7408 -1.12287,0.86146 0.16926,0.87319 0.8247,0.007 1.74608,-0.38545 2.04748,-0.87319 z m 8.4241,-3.16602 c 0,-0.24398 -0.79809,-0.0168 -1.77351,0.50578 -0.9754,0.52203 -1.77349,1.14868 -1.77349,1.39254 0,0.24398 0.79809,0.0168 1.77349,-0.50578 0.97542,-0.52202 1.77351,-1.14868 1.77351,-1.39254 z m 93.16664,0.47461 c 3.38278,-1.81043 2.03146,-4.00207 -4.06527,-6.59322 l -5.78048,-2.45673 -3.62953,2.4019 c -4.37255,2.89362 -3.83654,3.80301 3.47955,5.90349 6.24856,1.794 7.81655,1.91077 9.99573,0.74456 z m -53.69051,-2.70164 c 0.47024,-2.14108 0.16925,-3.19143 -1.38981,-4.85108 -1.42467,-1.51648 -1.7349,-2.44057 -1.09203,-3.25271 1.26593,-1.59919 2.09303,-14.863856 1.04854,-16.815514 -1.08422,-2.025912 -5.4676,-2.134899 -7.09299,-0.176299 -0.9277,1.117833 -2.22018,1.327803 -5.86045,0.952057 -2.56867,-0.265099 -4.90278,-0.105874 -5.18692,0.353931 -0.28421,0.459707 -0.90716,0.594513 -1.38455,0.299616 -0.47737,-0.29493 -1.54712,-0.242308 -2.37728,0.117308 -0.83013,0.359571 -2.36907,0.570875 -3.41982,0.4696 -1.05079,-0.10121 -2.14855,0.201086 -2.43945,0.671641 -0.29091,0.470718 -1.28157,0.659036 -2.20148,0.418464 -0.91989,-0.240636 -1.94154,-0.0022 -2.27033,0.529893 -0.32879,0.531987 -1.52741,0.73395 -2.66356,0.448773 -1.13618,-0.28521 -2.3216,-0.104572 -2.63431,0.401369 -0.31268,0.50594 -1.13516,0.702448 -1.82774,0.436667 -0.69263,-0.265772 -1.77719,-0.160863 -2.41016,0.232934 -0.633,0.393926 -2.01061,0.605241 -3.06142,0.469579 -1.05075,-0.135739 -2.14849,0.138418 -2.43941,0.609157 -0.29088,0.470719 -1.3266,0.647266 -2.30156,0.392322 -0.99076,-0.259067 -1.7726,-0.02679 -1.7726,0.526616 0,0.544582 0.58501,0.990176 1.30002,0.990176 2.75049,0 7.51021,3.041492 8.50026,5.4317 1.27568,3.07981 1.44805,3.11811 15.02861,3.34 9.25066,0.15114 11.46794,0.4572 13.40329,1.85004 1.27542,0.91793 3.74574,2.26509 5.48958,2.99374 1.74385,0.72861 4.06431,2.35259 5.15659,3.60883 2.56249,2.94709 3.16846,2.87735 3.89898,-0.44873 z m 77.6221,-0.59247 3.05587,-3.32529 -3.30576,3.03693 -3.30579,3.03695 -1.34966,-3.23016 c -0.74228,-1.77657 -1.34964,-3.61845 -1.34964,-4.09301 0,-0.47461 -0.38702,-1.10211 -0.86006,-1.39445 -0.72394,-0.44742 -0.11092,1.85766 2.17713,8.18591 0.64546,1.78522 1.69169,1.31551 4.93791,-2.21688 z m -129.95605,-2.45226 c -1.46315,-0.67673 -4.45589,-2.02976 -6.65062,-3.00667 -2.19468,-0.97697 -5.68625,-2.83248 -7.75901,-4.12341 -2.07279,-1.29091 -3.76867,-2.102112 -3.76867,-1.80268 0,1.01081 9.27507,6.45358 14.18792,8.32571 5.49485,2.09386 8.0432,2.48156 3.99038,0.60705 z m 130.41014,-3.20297 c 1.32419,-2.56066 1.70464,-7.139059 0.67854,-8.165151 -0.3261,-0.326107 -1.34814,0.09014 -2.271,0.925381 -2.1526,1.94808 -2.79608,0.988385 -4.22303,-6.298172 -1.48321,-7.57372 -3.42297,-9.408548 -6.59408,-6.237403 -1.01667,1.016666 -1.39348,3.174617 -1.39348,7.980707 0,5.4049 0.31841,6.905558 1.77351,8.360748 0.97542,0.9754 1.39711,1.77346 0.93703,1.77346 -4.05405,0 -4.97162,-13.519802 -1.45695,-21.467077 2.25937,-5.108864 6.12316,-8.019326 9.48054,-7.141371 2.87829,0.752707 2.0253,5.507759 -1.20156,6.698336 -1.56127,0.576018 -2.18432,2.401711 -0.81966,2.401711 1.29894,0 4.44009,-3.922875 5.02294,-6.273005 1.26011,-5.081012 -5.85206,-5.700467 -10.93487,-0.952393 -3.18828,2.978262 -4.49984,7.40672 -4.64148,15.671899 -0.16119,9.40229 2.12927,13.10232 7.12844,11.51563 1.39105,-0.44149 2.01484,0.10284 3.1037,2.709 1.175,2.81214 1.55409,3.10276 2.75127,2.10915 0.76366,-0.6338 1.96075,-2.25893 2.66014,-3.61145 z m -125.53303,2.42426 c 0,-1.35795 -10.36135,-5.85815 -13.48788,-5.85815 -2.93204,0 -1.05929,1.35168 5.95395,4.29733 7.40365,3.10966 7.53393,3.13663 7.53393,1.56082 z m 80.69389,-0.53768 c 0,-0.48771 -0.59859,-0.88676 -1.33013,-0.88676 -0.73156,0 -1.3301,0.39905 -1.3301,0.88676 0,0.4877 0.59854,0.88673 1.3301,0.88673 0.73154,0 1.33013,-0.39903 1.33013,-0.88673 z m 50.54926,-4.21204 c 0.61328,-0.71413 0.63216,-1.10843 0.0529,-1.10843 -0.4944,0 -1.52706,1.29684 -2.29476,2.8819 -1.17378,2.42348 -1.1822,2.59981 -0.0529,1.10844 0.73853,-0.97542 1.77116,-2.27228 2.29474,-2.88191 z m -129.62968,0.47383 c -0.15618,-1.08283 -1.67649,-2.85155 -3.38698,-3.94041 -1.70697,-1.08664 -4.22802,-2.849015 -5.6023,-3.916372 -1.79683,-1.395579 -2.769,-1.670343 -3.46111,-0.978189 -0.63632,0.636277 -1.49925,0.675221 -2.54631,0.114954 -1.02519,-0.548638 -1.77767,-0.534026 -2.13337,0.04155 -0.30229,0.48905 -1.52354,0.889138 -2.71406,0.889138 -4.99222,0 -0.78226,3.753769 5.87535,5.238679 2.22722,0.4968 5.81854,1.6878 7.98072,2.64673 5.22701,2.31826 6.33366,2.30052 5.98806,-0.0958 z m -10.86276,-2.57192 c -8.18311,-2.178533 -9.3556,-3.456424 -3.12084,-3.401491 4.91872,0.04328 10.61549,2.150711 11.27114,4.169441 0.44487,1.36975 -0.43013,1.2873 -8.1503,-0.76795 z m 167.94562,2.82144 c 0.50488,-0.94338 0.91794,-2.14045 0.91794,-2.66025 0,-1.47498 -2.40763,-1.10879 -3.00872,0.45762 -1.39616,3.63827 0.34232,5.46971 2.09078,2.20263 z m -155.14937,-3.09858 c 0,-0.20913 -0.62705,-1.00709 -1.39347,-1.773465 -2.04578,-2.045817 -3.59408,-1.701747 -1.71012,0.38002 1.45712,1.610115 3.10359,2.349355 3.10359,1.393445 z m -29.26262,-2.700788 c 0,-0.231253 -1.19711,-1.039664 -2.66022,-1.796264 -3.33497,-1.72457 -3.53676,-0.975509 -0.22155,0.822925 2.78665,1.51179 2.88195,1.543965 2.88195,0.973339 z m 1.74184,-1.703721 c -2.09364,-1.995451 -12.11708,-7.21186 -10.47922,-5.453607 0.80312,0.862171 3.59637,2.682398 6.20725,4.044978 5.58473,2.914606 5.99342,3.049367 4.27197,1.408629 z m 108.21469,-3.196182 c 0,-0.975412 -0.39903,-1.773472 -0.88674,-1.773472 -0.48771,0 -0.88677,0.79806 -0.88677,1.773472 0,0.975444 0.39906,1.773505 0.88677,1.773505 0.48771,0 0.88674,-0.798061 0.88674,-1.773505 z m 61.11547,-6.140076 c -0.06,-1.196479 -0.13975,-1.206134 -0.55625,-0.06704 -0.26744,0.731552 -1.33325,2.327707 -2.36853,3.546966 l -1.88232,2.216866 2.43857,-2.149729 c 1.3412,-1.182377 2.40703,-2.77852 2.36853,-3.546989 z m -184.37319,3.124076 c 0,-0.195726 -1.39664,-1.179828 -3.1036,-2.18698 -1.70702,-1.007141 -3.1036,-1.639241 -3.1036,-1.404669 0,0.373793 5.4051,3.935448 5.9855,3.944126 0.12199,0.0022 0.22153,-0.156848 0.22153,-0.352477 z M 384.0601,89.985451 c 1.70864,-1.708624 1.24476,-2.482886 -1.48756,-2.482886 -2.55568,0 -5.03999,1.86697 -3.94345,2.963519 0.95698,0.957013 4.28817,0.662182 5.43101,-0.480633 z m -13.07963,-2.565459 c 1.36251,-2.545889 0.50754,-5.264215 -2.58866,-8.230576 -1.8875,-1.808359 -3.12334,-2.337091 -4.46631,-1.910849 -2.4421,0.775097 -2.34745,2.359872 0.2889,4.836552 1.18004,1.108612 2.6251,3.173326 3.21119,4.58829 1.26316,3.049541 2.20477,3.239345 3.55491,0.716583 z M 183.83283,83.068857 c 0,-5.091508 -0.97843,-6.897957 -2.12204,-3.917852 -0.72291,1.883935 -0.68603,7.908168 0.0529,8.647163 1.49638,1.496365 2.06909,0.187341 2.06909,-4.729311 z m 5.32047,-0.939082 c 0,-5.046631 -0.98218,-6.835821 -2.12203,-3.865502 -0.71246,1.856675 -0.69146,8.789498 0.0301,9.509758 1.33107,1.331111 2.0932,-0.723883 2.0932,-5.644256 z m -14.63132,4.48606 c -0.30131,-0.487706 -0.94707,-0.886742 -1.43478,-0.886742 -0.4877,0 -0.64011,0.399036 -0.33872,0.886742 0.30129,0.487706 0.94709,0.88673 1.43479,0.88673 0.48771,0 0.64014,-0.399024 0.33871,-0.88673 z m -5.76385,-1.330146 c -0.82262,-0.991195 -0.83697,-1.33009 -0.0563,-1.33009 0.5762,0 0.80106,-0.399036 0.49964,-0.886742 -0.3013,-0.487749 -0.94706,-0.886774 -1.43481,-0.886774 -0.48771,0 -0.64014,0.399025 -0.3387,0.886774 0.64124,1.037515 -0.58805,1.185924 -1.83647,0.221534 -0.47357,-0.365777 0.14512,0.230916 1.37448,1.325708 2.57497,2.293092 3.3933,2.598816 1.79213,0.669461 z m 9.75423,-2.734098 c 0,-2.854368 -0.33013,-3.955928 -1.10844,-3.700311 -1.21157,0.397832 -1.97067,4.507278 -1.20241,6.509325 1.01706,2.65045 2.31085,1.077771 2.31085,-2.809014 z m 16.18352,-1.034575 c 0.479,-5.528738 0.37891,-6.018256 -1.04988,-5.135235 -1.1296,0.698153 -1.28686,10.234054 -0.16891,10.234054 0.42731,0 0.97571,-2.29446 1.21866,-5.098819 z m 5.09837,-1.160747 c 0,-5.046597 -0.98218,-6.835782 -2.12202,-3.8655 -0.71245,1.856718 -0.69148,8.789496 0.0301,9.509801 1.33112,1.331077 2.0932,-0.723928 2.0932,-5.644301 z m 5.32048,-0.960647 c 0,-3.877086 -0.30398,-5.241974 -1.10844,-4.977144 -1.16004,0.381901 -2.02629,7.908293 -1.16773,10.145714 1.0447,2.72247 2.27617,-0.07366 2.27617,-5.16857 z m 5.14951,-0.64552 c -0.1498,-2.514614 -0.67147,-4.666533 -1.15917,-4.782062 -0.99307,-0.235273 -1.72782,7.672141 -0.9107,9.801475 1.04342,2.719086 2.34316,-0.432804 2.06987,-5.019413 z m 5.31398,-0.406737 c 0.21516,-4.06518 0.002,-5.028727 -1.10842,-5.028727 -1.09072,0 -1.37436,1.113337 -1.37436,5.394373 0,7.163132 2.10103,6.85372 2.48278,-0.365646 z m -42.54303,2.656829 c 0.16958,-0.875015 -0.28253,-1.478337 -1.10845,-1.478337 -0.82257,0 -1.3951,0.758163 -1.3951,1.84739 0,2.161053 2.07212,1.855591 2.50355,-0.369053 z M 220.665,80.105273 c 0.69942,-3.728319 0.24231,-7.672448 -0.91897,-7.926653 -0.49629,-0.108592 -1.003,2.246328 -1.15074,5.348058 -0.28286,5.935281 1.11364,7.674963 2.06971,2.578595 z m 4.84488,-3.813247 c 0,-3.522167 -0.31137,-4.796241 -1.10844,-4.534183 -1.16752,0.383944 -2.01213,7.058887 -1.17064,9.2518 1.01229,2.637911 2.27908,0.01681 2.27908,-4.717617 z m -60.29872,4.179404 c 0,-0.887045 -7.98659,-6.559763 -8.50527,-6.041123 -0.25069,0.250692 7.47902,6.60434 8.28357,6.808713 0.12199,0.03016 0.22152,-0.314369 0.22152,-0.76759 z m 65.61919,-5.066178 c 0,-3.522162 -0.31136,-4.796236 -1.10843,-4.534147 -1.16753,0.383944 -2.01213,7.058894 -1.17064,9.251763 1.01228,2.637955 2.27907,0.01681 2.27907,-4.717616 z m 4.43374,2.453955 c 0,-1.402153 0.24936,-3.796384 0.5542,-5.320467 0.42339,-2.1169 0.24064,-2.771075 -0.77392,-2.771075 -0.95294,0 -1.45739,1.315153 -1.78568,4.655411 -0.25169,2.560464 -0.27884,4.954691 -0.0602,5.320478 0.91552,1.533465 2.06584,0.484223 2.06584,-1.884347 z m 150.23094,2.011158 c 0.77147,-0.295928 1.40266,-1.293632 1.40266,-2.216866 0,-1.327259 -0.64965,-1.67863 -3.1036,-1.67863 -2.4184,0 -3.10365,0.358911 -3.10365,1.625716 0,2.68922 1.66354,3.47511 4.80459,2.26978 z m -3.91782,-2.12199 c 0,-0.487728 0.77453,-0.886763 1.72115,-0.886763 0.94664,0 1.9678,0.399035 2.26919,0.886763 0.31068,0.502925 -0.43414,0.886741 -1.72115,0.886741 -1.24807,0 -2.26919,-0.399035 -2.26919,-0.886741 z M 240.40979,73.82011 c 0.20443,-3.896136 -0.006,-5.027257 -0.88674,-4.737022 -0.7267,0.239971 -1.25499,2.280214 -1.42397,5.499587 -0.20443,3.896125 0.006,5.027223 0.88677,4.73698 0.72669,-0.239964 1.25501,-2.280216 1.42394,-5.499545 z m 4.60853,-0.557827 c 0,-5.046588 -0.98222,-6.835782 -2.12204,-3.865494 -0.71244,1.856716 -0.69147,8.7895 0.0301,9.509793 1.33108,1.331078 2.09321,-0.723884 2.09321,-5.644299 z m 5.32047,-0.834383 c 0,-2.926281 -0.35637,-5.320479 -0.79189,-5.320479 -1.20509,0 -1.86834,2.386757 -1.86834,6.723107 0,2.891353 0.34848,3.917847 1.33009,3.917847 1.03455,0 1.33014,-1.182333 1.33014,-5.320475 z m 140.96312,-1.650063 c -0.0235,-1.139468 -0.40634,-1.001226 -1.77347,0.63986 -0.95919,1.151372 -1.73075,2.747515 -1.71453,3.546972 0.0235,1.139506 0.40634,1.001251 1.77351,-0.63983 0.9592,-1.151402 1.73071,-2.747545 1.71449,-3.547002 z m -0.99167,-1.795087 c 0.65761,-0.41676 1.05119,-1.508007 0.87459,-2.424972 -0.25035,-1.299303 -1.1012,-1.667223 -3.85594,-1.667223 -4.14836,0 -4.83716,1.948986 -1.31796,3.729396 2.628,1.329562 2.75668,1.340393 4.29931,0.362799 z m -3.70816,-1.579757 c -1.21014,-1.210157 -0.5298,-2.183392 1.33456,-1.90907 1.05918,0.155846 2.02682,0.79212 2.15039,1.413956 0.12367,0.621836 0.0234,0.721606 -0.22624,0.221535 -0.248,-0.499907 -0.8401,-0.908926 -1.31595,-0.908926 -0.47585,0 -0.61855,0.399031 -0.31706,0.886767 0.60958,0.986272 -0.69733,1.223896 -1.6257,0.295604 z M 135.79184,65.925492 c 0.21752,-1.121444 -0.37115,-1.478305 -2.43853,-1.478305 -3.12821,0 -3.26059,0.224544 -1.29222,2.19311 1.68371,1.683681 3.32664,1.368907 3.73075,-0.714805 z m 6.36391,-0.591567 c 0,-0.487716 -0.62211,-0.886738 -1.38246,-0.886738 -0.76035,0 -1.13585,0.399022 -0.83442,0.886738 0.3013,0.487705 0.92354,0.886727 1.38245,0.886727 0.45892,0 0.83443,-0.399022 0.83443,-0.886727 z m 252.72266,-3.825046 c 0,-1.421766 -0.22588,-1.525124 -1.33015,-0.608696 -0.73156,0.60715 -1.31743,2.152382 -1.30189,3.433887 0.0268,2.240134 0.0784,2.263591 1.33012,0.608664 0.71604,-0.946686 1.30192,-2.491929 1.30192,-3.433855 z m -247.40219,2.938308 c 0,-0.487746 -0.39902,-0.88677 -0.88673,-0.88677 -0.48775,0 -0.88678,0.399024 -0.88678,0.88677 0,0.487704 0.39903,0.886738 0.88678,0.886738 0.48771,0 0.88673,-0.399034 0.88673,-0.886738 z m 5.4125,-1.149425 c -1.13812,-1.138129 -2.29228,-0.2584 -1.44967,1.104882 0.32643,0.528095 0.99968,0.709137 1.49616,0.402281 0.60567,-0.374331 0.59037,-0.870311 -0.0466,-1.507163 z m 6.56244,0.25639 c 0.30365,-0.491158 -0.0891,-1.139006 -0.87265,-1.439669 -1.69779,-0.651484 -2.64401,0.06638 -1.82794,1.386943 0.73636,1.191422 1.98181,1.215754 2.70059,0.05266 z m 5.76,-0.828149 c 0,-1.046231 -1.72948,-2.165429 -2.36467,-1.530227 -0.63518,0.635172 0.48401,2.364641 1.53025,2.364641 0.45892,0 0.83442,-0.375463 0.83442,-0.834414 z m 225.20253,-1.349482 c 1.96471,-2.091319 1.98871,-2.279905 0.56641,-4.450632 -1.43199,-2.185494 -1.41259,-2.296767 0.54146,-3.103767 1.49946,-0.619261 0.98858,-0.69812 -1.96363,-0.302973 -4.36758,0.584395 -5.80391,1.17388 -2.86036,1.17388 2.70639,0 2.98815,1.09369 1.04222,4.045683 -3.18211,4.8272 -1.21033,6.772474 2.6739,2.637881 z m -220.05205,0.343897 c -0.17462,-0.524271 -0.6968,-0.953263 -1.16014,-0.953263 -0.46332,0 -0.98541,0.428992 -1.16015,0.953263 -0.17461,0.524311 0.34728,0.953263 1.16015,0.953263 0.81286,0 1.33493,-0.428952 1.16014,-0.953263 z m 108.54713,-1.740754 c 0.2175,-1.481697 -0.10664,-3.377121 -0.71986,-4.212041 -1.01225,-1.377793 -1.20329,-1.287409 -2.06837,0.978563 -0.66146,1.732643 -0.67218,3.021558 -0.0348,4.21204 1.32454,2.474967 2.36956,2.112776 2.82325,-0.978562 z m -103.05666,0.920519 c 0,-0.487716 -0.62214,-0.886737 -1.38249,-0.886737 -0.7603,0 -1.13582,0.399021 -0.83438,0.886737 0.30129,0.487705 0.92353,0.886768 1.38245,0.886768 0.45892,0 0.83442,-0.399063 0.83442,-0.886768 z m 5.32049,-0.886737 c 0,-0.487704 -0.62215,-0.886739 -1.3825,-0.886739 -0.76031,0 -1.13582,0.399035 -0.83439,0.886739 0.30131,0.487706 0.92354,0.886737 1.38246,0.886737 0.45893,0 0.83443,-0.399031 0.83443,-0.886737 z m 5.32047,-0.443369 c 0,-0.731562 -0.64745,-1.330139 -1.43873,-1.330139 -1.17828,0 -1.23888,0.240644 -0.33481,1.330139 0.60716,0.731562 1.25455,1.330106 1.43868,1.330106 0.18401,0 0.33482,-0.598544 0.33482,-1.330106 z m 171.06809,-0.127359 c 0.2031,-0.173944 -0.87058,-0.316041 -2.38621,-0.316041 -1.51565,0 -2.99861,0.392995 -3.29549,0.87336 -0.48934,0.791791 4.69938,0.282867 5.6817,-0.557383 z m -164.86088,-1.25506 c 0,-0.458952 -0.59854,-0.834416 -1.33015,-0.834416 -1.37124,0 -1.76166,1.046326 -0.76307,2.044975 0.70848,0.708435 2.09322,-0.09254 2.09322,-1.210559 z m 4.56673,-0.391048 c 0,-0.46331 -0.42897,-0.985405 -0.95324,-1.160151 -0.52429,-0.174614 -0.95326,0.347277 -0.95326,1.160151 0,0.812867 0.42897,1.334921 0.95326,1.160144 0.52427,-0.174613 0.95324,-0.6968 0.95324,-1.160144 z m 5.18749,-0.443368 c 0,-0.487714 -0.39906,-0.886738 -0.88677,-0.886738 -0.48772,0 -0.88674,0.399024 -0.88674,0.886738 0,0.487705 0.39902,0.886728 0.88674,0.886728 0.48771,0 0.88677,-0.399023 0.88677,-0.886728 z m 148.97333,-4.098933 c 0,-2.655885 -3.0083,-7.376305 -4.04206,-6.342543 -0.19104,0.19103 0.11059,2.809679 0.67035,5.819273 0.81556,4.385313 1.25139,5.278017 2.19465,4.495142 0.64739,-0.537276 1.17706,-2.324623 1.17706,-3.971872 z m -143.65285,3.212195 c 0,-0.487744 -0.59858,-0.886767 -1.33014,-0.886767 -0.73156,0 -1.33011,0.399023 -1.33011,0.886767 0,0.487705 0.59855,0.886738 1.33011,0.886738 0.73156,0 1.33014,-0.399033 1.33014,-0.886738 z m 164.69461,0.350998 c -0.29459,-0.294593 -1.05949,-0.326098 -1.6996,-0.07008 -0.7074,0.283195 -0.49727,0.493197 0.53574,0.53573 0.9348,0.03854 1.45853,-0.171263 1.16386,-0.465723 z M 213.09544,55.579737 c 0,-0.487705 -0.59856,-0.886739 -1.33012,-0.886739 -0.73156,0 -1.33012,0.399034 -1.33012,0.886739 0,0.487704 0.59856,0.886767 1.33012,0.886767 0.73156,0 1.33012,-0.399063 1.33012,-0.886767 z m 5.32048,-0.443371 c 0,-0.731562 -0.59858,-1.330106 -1.33014,-1.330106 -1.38472,0 -1.75928,1.048747 -0.73893,2.069079 1.02029,1.020323 2.06907,0.645756 2.06907,-0.738973 z M 378.2688,55.88482 c -0.60039,-0.24298 -1.79748,-0.257729 -2.66024,-0.0335 -0.86282,0.224886 -0.37158,0.423561 1.09155,0.441627 1.46311,0.01679 2.16904,-0.165904 1.56869,-0.408781 z M 223.7364,54.745321 c 0,-1.046231 -1.72945,-2.165428 -2.36467,-1.530226 -0.63517,0.635172 0.48403,2.364642 1.53026,2.364642 0.45892,0 0.83441,-0.375465 0.83441,-0.834416 z m 159.85288,0.2527 c -0.60038,-0.24298 -1.79747,-0.25773 -2.66024,-0.0335 -0.86282,0.224885 -0.37158,0.423562 1.09155,0.441628 1.46312,0.01679 2.16904,-0.165904 1.56869,-0.408782 z M 228.17012,53.8062 c 0,-0.487748 -0.62211,-0.886769 -1.38246,-0.886769 -0.76035,0 -1.13582,0.399021 -0.83443,0.886769 0.30131,0.487703 0.92355,0.886737 1.38247,0.886737 0.45895,0 0.83442,-0.399034 0.83442,-0.886737 z m 5.32048,-0.939084 c 0,-0.45895 -0.59856,-0.834424 -1.33012,-0.834424 -1.3713,0 -1.76171,1.046335 -0.76307,2.044974 0.70845,0.708436 2.09319,-0.09254 2.09319,-1.21055 z m 4.7544,-0.391055 c 0.3439,-0.896146 -0.042,-1.330096 -1.18291,-1.330096 -1.82751,0 -2.98844,1.174219 -2.06948,2.093163 1.00703,1.007018 2.72808,0.603235 3.25239,-0.763067 z m 4.51857,-0.382102 c 0.65577,-1.061081 -1.01235,-2.112435 -2.19348,-1.382449 -0.99169,0.612921 -0.34065,2.207921 0.90122,2.207921 0.43016,0 1.01164,-0.371445 1.29226,-0.825472 z m 4.91499,-0.947994 c 0,-0.487747 -0.59858,-0.886769 -1.33014,-0.886769 -0.73157,0 -1.3301,0.399022 -1.3301,0.886769 0,0.487704 0.59853,0.886727 1.3301,0.886727 0.73156,0 1.33014,-0.399023 1.33014,-0.886727 z m 4.4337,-0.44341 c 0,-0.731554 -0.39904,-1.330098 -0.88673,-1.330098 -0.48772,0 -0.88674,0.598544 -0.88674,1.330098 0,0.731603 0.39902,1.330137 0.88674,1.330137 0.48769,0 0.88673,-0.598534 0.88673,-1.330137 z m 9.75422,-1.277785 c 0,-1.197418 -1.61649,-2.027504 -2.67471,-1.373504 -0.49566,0.306331 -0.67165,0.928435 -0.39103,1.38246 0.66564,1.077056 3.06574,1.070059 3.06574,-0.0103 z m 4.43373,-0.991394 c 0,-0.45892 -0.59857,-0.834424 -1.33013,-0.834424 -1.37125,0 -1.76171,1.046335 -0.76307,2.044972 0.70844,0.708436 2.0932,-0.09244 2.0932,-1.210548 z m 4.43373,-0.391056 c 0,-0.731563 -0.59856,-1.330106 -1.33012,-1.330106 -1.38473,0 -1.75928,1.048744 -0.73896,2.069078 1.02032,1.020324 2.06908,0.645756 2.06908,-0.738972 z m 4.81969,-0.35043 c 0.2698,-0.436598 -0.0929,-1.017746 -0.80605,-1.291398 -1.38569,-0.531742 -2.5691,0.573944 -1.62487,1.518158 0.80163,0.801642 1.85611,0.703272 2.43092,-0.226895 z m 4.04778,-0.979676 c 0,-0.487706 -0.59856,-0.886728 -1.33013,-0.886728 -0.73156,0 -1.3301,0.399022 -1.3301,0.886728 0,0.487714 0.59854,0.886738 1.3301,0.886738 0.73157,0 1.33013,-0.399024 1.33013,-0.886738 z m 4.43371,-0.443359 c 0,-0.731562 -0.59856,-1.330138 -1.33012,-1.330138 -1.38471,0 -1.75927,1.048747 -0.73895,2.069069 1.02032,1.020322 2.06907,0.645765 2.06907,-0.738931 z m 50.10116,-0.886769 c 0,-0.894116 -0.49878,-1.791944 -1.10843,-1.995176 -0.70199,-0.233933 -1.10843,0.497558 -1.10843,1.995176 0,1.497639 0.40644,2.229201 1.10843,1.995197 0.60965,-0.203098 1.10843,-1.101059 1.10843,-1.995197 z m -45.26192,0.504658 c 0.65578,-1.061072 -1.01232,-2.112435 -2.19344,-1.382451 -0.9917,0.612891 -0.34068,2.207921 0.9012,2.207921 0.43014,0 1.01164,-0.371476 1.29224,-0.82547 z m 4.47161,-0.948027 c 0.3013,-0.487714 -0.27348,-0.886738 -1.27778,-0.886738 -1.00422,0 -1.82586,0.399024 -1.82586,0.886738 0,0.487706 0.57502,0.886769 1.27779,0.886769 0.7028,0 1.52443,-0.399063 1.82585,-0.886769 z m 3.99034,-0.939091 c 0,-0.45891 -0.59854,-0.834384 -1.33009,-0.834384 -1.37131,0 -1.7617,1.046303 -0.76307,2.044942 0.70843,0.708467 2.09316,-0.09254 2.09316,-1.210558 z m 4.26378,-0.0134 c -0.17461,-0.524311 -0.69683,-0.953262 -1.16018,-0.953262 -0.46329,0 -0.98536,0.428951 -1.16014,0.953262 -0.1746,0.524271 0.34731,0.953263 1.16014,0.953263 0.81289,0 1.33493,-0.428992 1.16018,-0.953263 z m 4.60367,-0.820213 c 0,-0.487736 -0.59854,-0.886769 -1.33009,-0.886769 -0.73158,0 -1.33014,0.399033 -1.33014,0.886769 0,0.487705 0.59856,0.886738 1.33014,0.886738 0.73155,0 1.33009,-0.399033 1.33009,-0.886738 z m 4.02685,-0.05895 c 0.81611,-1.320491 -0.13003,-2.03844 -1.8279,-1.386944 -0.78355,0.300623 -1.17625,0.948533 -0.87269,1.43969 0.71879,1.162997 1.96424,1.138665 2.70059,-0.05267 z m 3.78391,-0.894251 c -0.17462,-0.524301 -0.69683,-0.953261 -1.16014,-0.953261 -0.46331,0 -0.98542,0.42896 -1.16015,0.953261 -0.17461,0.524282 0.34728,0.953232 1.16015,0.953232 0.81287,0 1.33493,-0.42895 1.16014,-0.953232 z m 4.6037,-0.872617 c 0,-0.458922 -0.59854,-0.834386 -1.3301,-0.834386 -1.37129,0 -1.76171,1.046293 -0.76308,2.044934 0.70845,0.708476 2.09318,-0.09245 2.09318,-1.210548 z m 3.95251,0.113611 c 0.65577,-1.061042 -1.01235,-2.112406 -2.19349,-1.38242 -0.99171,0.61289 -0.34064,2.207889 0.90122,2.207889 0.43017,0 1.01164,-0.371444 1.29227,-0.825469 z m 3.58485,-0.947997 c -0.30132,-0.487714 -0.92353,-0.886737 -1.38245,-0.886737 -0.45892,0 -0.83443,0.399023 -0.83443,0.886737 0,0.487705 0.62211,0.886729 1.38246,0.886729 0.76034,0 1.13585,-0.399024 0.83442,-0.886729 z M 521.87357,297.95979 c -1.99174,-3.85959 -4.62245,-13.01714 -5.96474,-20.7635 -0.79613,-4.59438 -2.0114,-10.7476 -2.7006,-13.67387 -1.59805,-6.78501 -1.61957,-15.57539 -0.0533,-21.76068 0.67435,-2.66295 1.44441,-11.6253 1.71127,-19.91641 0.42815,-13.3024 0.87714,-16.74266 3.81901,-29.26258 2.96324,-12.61073 3.35151,-15.61735 3.49255,-27.04579 0.0872,-7.0718 0.85477,-17.84577 1.70553,-23.94215 2.70636,-19.39301 2.41518,-23.70942 -2.90553,-43.072518 -7.91475,-28.803102 -12.9953,-38.856604 -26.85415,-53.139419 -5.20554,-5.364783 -9.77114,-10.751745 -10.14569,-11.971054 -0.37457,-1.219266 -2.36602,-5.010096 -4.42545,-8.424082 -2.05941,-3.413954 -4.39163,-7.475818 -5.18273,-9.026316 -1.29932,-2.546652 -4.51082,-4.621019 -5.54818,-3.583671 -0.22521,0.225225 0.0519,1.422974 0.6162,2.66142 0.89286,1.959568 0.71185,2.66348 -1.39557,5.426412 -2.65745,3.484096 -4.51312,3.519992 -2.93516,0.05668 1.93025,-4.236445 -1.86706,-8.593303 -4.60954,-5.288809 -1.70452,2.053858 -2.73289,1.573088 -1.66214,-0.777 0.75536,-1.657813 0.64518,-2.587753 -0.51669,-4.360981 -1.76783,-2.6980155 -6.68866,-19.3933842 -6.68866,-22.69318 0,-1.281453 -0.39633,-3.711897 -0.88076,-5.400999 -0.77304,-2.695419 -0.48841,-3.907204 2.3268,-9.906344 2.74721,-5.854189 3.22362,-7.809131 3.31934,-13.620313 0.10522,-6.393703 -0.0301,-6.908522 -2.36999,-8.925754 -2.63018,-2.268765 -2.60397,-2.274919 -6.89266,1.617173 -3.5917,3.259537 -1.25812,6.872283 4.439,6.872283 2.14138,0 2.71852,0.382429 2.71852,1.801321 0,2.417521 -2.35217,3.186061 -4.3149,1.409832 -3.04284,-2.753729 -3.77671,-2.015024 -4.95869,4.991248 -0.62427,3.700571 -2.2541,4.539851 -2.2541,1.160772 0,-1.190493 -0.42648,-2.428105 -0.9477,-2.750236 -1.06045,-0.655402 -0.24935,-11.358692 1.04993,-13.856522 0.42335,-0.81384 1.9656,-1.742368 3.42723,-2.063384 1.46157,-0.321043 2.88508,-0.952016 3.16328,-1.402206 1.84619,-2.98719 -11.26619,3.121614 -14.84123,6.914241 -1.27789,1.355646 -3.20347,4.360231 -4.27907,6.676857 -2.24415,4.833329 -4.40267,5.43307 -8.35762,2.322109 -2.70137,-2.124917 -3.68881,-4.236723 -5.48316,-11.726767 -1.43111,-5.973746 -6.62808,-12.743982 -13.66114,-17.796715 -6.16938,-4.432278 -16.9029,-10.811808 -19.48254,-11.579566 -1.21926,-0.362886 -3.4803,-1.424263 -5.02449,-2.358615 -1.55778,-0.942532 -5.32002,-1.933411 -8.45117,-2.225807 l -5.6435,-0.526999 -4.11551,3.999831 c -4.62988,4.499715 -5.5462,6.945878 -7.08786,18.921103 -1.2694,9.860706 -0.53677,12.166827 5.36784,16.896062 2.2639,1.813235 4.23735,3.376998 4.38541,3.475016 0.46808,0.309774 0.40388,3.357076 -0.14813,7.029264 -0.46364,3.085146 -2.57169,9.133415 -6.8755,19.726913 -0.99374,2.446048 -0.97387,3.0689848 0.13204,4.1444968 1.12916,1.098049 2.11265,1.000361 7.42173,-0.737055 5.80313,-1.8991148 6.36655,-3.1825778 1.39708,-3.1825778 -2.51805,0 -2.9041,-1.50946 -0.89893,-3.514642 2.61769,-2.617683 8.41104,-2.489425 10.18998,0.225626 1.20807,1.843721 1.16044,2.376339 -0.51558,5.763848 -1.37437,2.7778538 -2.37138,3.7324258 -3.89835,3.7324258 -4.08461,0 -4.85695,0.843834 -4.85695,5.3067411 0,2.3266625 0.49879,4.6315717 1.10842,5.1220285 1.03596,0.8334468 9.66943,2.9811794 11.10142,2.7616952 1.64719,-0.2523702 2.86484,0.1927096 2.86484,1.0475402 0,0.5793956 -1.90997,0.833138 -5.0062,0.6650585 -3.41271,-0.1853298 -5.12975,0.080802 -5.39423,0.8361988 -0.2135,0.609365 0.1441,1.2694049 0.79419,1.4667419 4.60949,1.398908 4.45054,1.185154 2.98667,4.015919 -3.32987,6.439264 -0.26409,12.316188 6.84296,13.117222 7.13818,0.80459 10.40919,-0.350162 40.90998,-14.442299 1.93542,-0.89421 4.46267,-3.117619 5.76385,-5.070859 1.27447,-1.9131312 3.57832,-4.9286919 5.1197,-6.7012913 l 2.80244,-3.2229141 0.61703,3.2890049 c 0.73529,3.919489 -0.77187,10.8433855 -3.15018,14.4718355 -2.52549,3.852995 -10.08277,11.261382 -15.46048,15.155899 -7.09063,5.135004 -9.81602,11.286681 -6.0113,13.568547 1.43562,0.860963 1.39506,1.063483 -0.54159,2.704271 -1.1514,0.975522 -2.66681,1.77364 -3.36765,1.77364 -0.70082,0 -2.19709,0.995794 -3.325,2.212847 l -2.0508,2.212814 0.42303,-2.212814 c 0.54743,-2.863735 -0.97723,-2.861055 -2.28264,0.0031 -0.81896,1.797438 -2.82162,3.150063 -2.82162,1.905825 0,-2.103223 2.23589,-5.884231 3.36593,-5.692057 1.77311,0.301631 5.46702,-5.954816 5.48699,-9.293259 0.0168,-2.625884 -0.77601,-3.066769 -2.46833,-1.374442 -0.82762,0.827622 -1.0641,0.630554 -1.0641,-0.88677 0,-1.16279 0.54994,-1.950828 1.36133,-1.950828 2.05974,0 5.73266,-2.688225 5.73266,-4.195748 0,-0.98014 -0.52657,-1.161966 -1.99518,-0.688897 -1.09734,0.353482 -7.42528,0.842795 -14.06208,1.087352 -10.85172,0.399868 -12.4844,0.26007 -16.21306,-1.389396 -4.2251,-1.869383 -6.74653,-5.564192 -6.74653,-9.886629 0,-2.246401 -4.14541,-12.335562 -5.86452,-14.2732214 -0.74755,-0.8425666 -1.19326,-3.0251529 -1.10331,-5.40275959 0.18198,-4.80853421 -0.44387,-6.02418421 -2.78569,-5.41180921 -0.97407,0.254719 -2.76933,-0.19103 -3.98947,-0.990426 -3.1079,-2.036377 -2.88687,-5.6175968 0.93109,-15.0860458 2.99181,-7.419495 3.07352,-7.894792 1.63115,-9.488574 -0.83512,-0.922808 -1.25734,-1.938874 -0.93832,-2.257923 0.31907,-0.31903 -0.2155,-1.137295 -1.18774,-1.818338 -0.9723,-0.681043 -1.76784,-1.986528 -1.76784,-2.901071 0,-0.914565 -1.19714,-2.515251 -2.66025,-3.557093 -3.13285,-2.230768 -3.64987,-4.89937 -0.80513,-4.155456 1.66723,0.435993 1.72477,0.334182 0.56844,-1.005002 -0.7077,-0.819577 -1.5339,-2.487729 -1.83604,-3.707 -0.49893,-2.013323 0.48569,-12.940867 1.94665,-21.60446 0.53532,-3.174582 0.30062,-3.703197 -3.19507,-7.198981 -2.43069,-2.430666 -3.77283,-4.56286 -3.77283,-5.99363 0,-4.469631 6.46778,-15.747479 9.03109,-15.747479 0.49101,0 1.95192,-0.73703 3.24645,-1.63785 1.29458,-0.90083 3.73908,-2.10801 5.43223,-2.68262 3.25181,-1.10358 8.00588,-5.10138 8.00588,-6.73228 0,-1.52646 5.2834,-5.76229 7.85975,-6.30136 1.2858,-0.26902 3.64823,-1.06332 5.24984,-1.7651 1.60161,-0.70177 3.40835,-1.27594 4.01498,-1.27594 0.60661,0 1.80975,-0.82548 2.6736,-1.83441 1.16039,-1.3552 2.20083,-1.69599 3.98299,-1.30455 1.50282,0.33004 3.07453,0.0292 4.16858,-0.79764 0.96594,-0.73012 3.06308,-1.34016 4.6603,-1.35567 1.59726,-0.0155 5.18861,-0.83681 7.98072,-1.8251 4.41799,-1.56377 5.6383,-1.6637 9.40553,-0.77026 2.56328,0.60788 6.79832,0.7971 10.38327,0.46391 4.58556,-0.42618 6.86976,-0.21549 9.41564,0.8685 1.84874,0.78715 4.75796,2.02168 6.46495,2.74339 9.94304,4.20393 20.45543,13.06789 21.78612,18.3699 0.3405,1.35649 1.50553,2.76096 2.65185,3.19679 1.5955,0.6066 2.02536,1.42018 1.957,3.704 -0.0482,1.609664 0.56822,6.072054 1.36981,9.916438 1.14225,5.478433 1.27379,8.258574 0.60842,12.857823 -0.46688,3.227413 -0.85684,9.787472 -0.86649,14.577874 -0.0168,9.162766 -2.38157,21.543095 -6.68222,35.008531 -1.19909,3.754389 -2.18526,8.376015 -2.1915,10.270277 -0.006,1.894249 -0.45342,4.919703 -0.99374,6.72321 -0.77134,2.5744988 -0.6761,4.7605808 0.44337,10.17362641 1.62765,7.87049259 1.76988,10.25177679 0.61238,10.25177679 -0.44739,0 -2.29979,-4.4891343 -4.11646,-9.97587849 -1.81665,-5.48674191 -4.00757,-10.98343971 -4.86869,-12.21490971 -0.97289,-1.39119 -1.4958,-3.573717 -1.38106,-5.763849 0.10154,-1.938657 -0.0938,-4.721934 -0.43427,-6.185068 -0.44069,-1.893962 -0.64514,-0.842865 -0.70979,3.649082 -0.0717,4.993113 0.26779,6.765094 1.62779,8.494069 0.94519,1.201613 1.98319,3.3503668 2.30668,4.7749988 1.67474,7.37530511 9.76046,27.4572872 10.54451,26.1887152 0.32274,-0.522363 0.16958,-1.729861 -0.34079,-2.683299 -0.51026,-0.953426 -0.92775,-2.584722 -0.92775,-3.625059 0,-1.546974 0.36347,-1.783018 1.99518,-1.295746 1.09736,0.327768 2.66547,1.25241 3.48466,2.054928 1.96521,1.925116 12.25508,19.745114 12.25508,21.223285 0,0.633161 4.09016,5.224026 9.0892,10.201917 13.68212,13.624239 19.95914,25.774595 27.12267,52.501337 5.98534,22.330761 5.98217,22.302441 4.17892,37.330511 -0.87208,7.26769 -1.88011,20.39663 -2.24013,29.17542 -0.5596,13.6474 -1.1208,18.01855 -3.87082,30.151 -2.64812,11.68281 -3.37245,17.08745 -4.10027,30.59275 -0.48617,9.02173 -1.36827,18.90844 -1.96019,21.97042 -0.8201,4.24251 -0.83797,7.0911 -0.0751,11.97109 2.48714,15.90938 5.57147,30.12516 7.65566,35.28507 2.12712,5.26622 2.60885,8.27708 0.74708,4.66935 z M 466.70484,20.996629 c 0.52202,-0.975409 0.74962,-1.773495 0.50578,-1.773495 -0.24399,0 -0.87052,0.798086 -1.39254,1.773495 -0.52204,0.975421 -0.74964,1.773477 -0.50577,1.773477 0.24398,0 0.8705,-0.798056 1.39253,-1.773477 z m -3.05835,-33.224502 c 0.70665,-1.691327 1.28763,-4.584342 1.29102,-6.428917 0.002,-1.844575 0.96703,-6.184625 2.14138,-9.644534 5.04952,-14.876897 6.63015,-25.217501 6.89991,-45.140506 0.25774,-19.037406 -0.6775,-27.03372 -3.43346,-29.35351 -0.63882,-0.5377 -1.73311,-2.3458 -2.4318,-4.018 -1.80468,-4.31924 -13.53485,-14.80498 -18.20786,-16.27625 -1.19232,-0.37539 -4.74215,-1.83754 -7.88852,-3.24921 -5.16537,-2.31756 -6.16181,-2.48514 -10.26544,-1.72654 -3.21659,0.59461 -6.12766,0.50984 -9.96075,-0.29004 -4.83838,-1.00967 -5.87655,-0.95525 -9.73535,0.51025 -2.37567,0.90225 -5.71602,1.65346 -7.42303,1.66937 -1.70697,0.0158 -3.87818,0.6148 -4.82489,1.33084 -0.9467,0.71606 -2.99895,1.30191 -4.56053,1.30191 -1.62115,0 -3.04449,0.5348 -3.31759,1.24651 -0.26311,0.68557 -1.77978,1.53234 -3.37044,1.88172 -6.38805,1.40305 -13.69488,5.61659 -17.43811,10.05586 -2.39266,2.83754 -4.90488,4.78792 -7.04984,5.47313 -6.67907,2.13366 -12.23107,6.626184 -14.74156,11.928414 -2.91526,6.157086 -2.93244,8.472464 -0.088,11.85274 2.13445,2.53667 5.98233,3.579591 5.14367,1.394133 -0.58928,-1.535681 5.02629,-5.908499 6.94378,-5.407053 0.89598,0.234289 1.40545,0.06425 1.13212,-0.378061 -0.27315,-0.442216 0.72372,-0.804045 2.21563,-0.804045 1.49192,0 2.71257,0.343703 2.71257,0.763778 0,0.420083 1.05691,0.561741 2.34868,0.314805 1.50998,-0.288665 2.14284,-0.115959 1.77226,0.483633 -0.35851,0.580097 0.0892,0.758603 1.18408,0.472254 2.3017,-0.601898 6.43552,0.450765 5.80112,1.477242 -0.27181,0.439717 -0.0268,1.088225 0.5441,1.441138 0.64843,0.400736 0.80067,0.257286 0.4055,-0.382104 -0.34799,-0.563066 -0.39374,-1.023757 -0.10154,-1.023757 1.22636,0 7.55439,3.646541 7.55439,4.353222 0,0.423613 0.6983,0.714778 1.5518,0.647038 0.85349,-0.06774 1.48548,0.275889 1.40441,0.763594 -0.0812,0.487696 0.71697,0.938221 1.77346,1.001127 2.42296,0.144278 14.03561,7.359932 13.42776,8.343467 -0.24836,0.401737 0.0168,1.019197 0.58677,1.372092 0.64841,0.400745 0.80067,0.257304 0.40549,-0.382096 -1.01944,-1.649553 0.42403,-1.184431 3.42286,1.102904 4.73072,3.608305 10.29402,11.646812 12.1193,17.511405 2.15051,6.909682 3.0713,8.109842 5.30483,6.914485 1.16152,-0.62162 1.68035,-0.607048 1.68035,0.04709 0,0.520591 -0.89781,1.33227 -1.99516,1.803723 -1.51048,0.648972 -1.59007,0.80359 -0.32777,0.636492 0.91716,-0.121393 2.31379,-1.201305 3.10364,-2.399785 0.83714,-1.270261 0.97377,-1.895632 0.32778,-1.499473 -1.89402,1.161254 -1.22872,-0.819399 1.7735,-5.27983 2.29178,-3.404905 3.78985,-4.602881 7.31564,-5.850121 2.51623,-0.890108 5.39251,-2.728419 6.65062,-4.250602 2.46753,-2.985474 4.81613,-3.364133 7.81924,-1.260682 1.44108,1.009357 1.85516,1.94657 1.46932,3.325297 -0.4065,1.452499 -0.32209,1.607283 0.34661,0.635913 0.71059,-1.032089 0.99918,-0.824603 1.4717,1.058041 0.32342,1.288052 0.28891,2.825272 -0.076,3.416057 -0.39831,0.644478 -0.29226,0.84445 0.26542,0.499903 1.02398,-0.632863 2.36297,3.437523 1.55881,4.738671 -0.27515,0.445449 0.0134,1.676337 0.63793,2.735327 0.75231,1.27231 0.82346,2.041252 0.20979,2.26693 -0.51336,0.188782 -0.76112,1.77732 -0.5539,3.552156 0.20612,1.765849 0.0267,2.994 -0.40137,2.729211 -0.43727,-0.271199 -0.56583,4.07486 -0.29425,9.952556 0.3592,7.779119 0.87209,11.029591 2.01561,12.77484 0.84359,1.287471 1.74447,2.3408658 2.00197,2.3408658 0.25739,0 1.04637,-1.3838108 1.75306,-3.0751278 z M 394.48102,-77.35778 c -0.27616,-0.446794 -0.0855,-1.908402 0.424,-3.248012 1.1776,-3.097373 3.12853,-1.579358 2.28577,1.778536 -0.57865,2.305654 -1.78775,2.961323 -2.70977,1.469476 z m -34.18571,41.574827 c 0,-1.787401 -2.23377,-3.354479 -3.28422,-2.304023 -0.47651,0.476513 2.15604,4.105334 2.97826,4.105334 0.16825,0 0.30599,-0.810588 0.30599,-1.801311 z m 63.1962,-4.240527 c -0.60109,-0.381822 -1.67034,-2.271126 -2.37609,-4.198469 -0.70573,-1.927333 -1.31128,-2.992648 -1.34566,-2.367337 -0.11528,2.100035 2.49546,7.287309 3.66095,7.273593 0.89565,-0.01041 0.90926,-0.168841 0.0608,-0.707787 z m -65.85645,-0.471319 c 0,-0.168274 -0.89782,-1.066101 -1.99517,-1.995176 l -1.9952,-1.689245 1.68925,1.995175 c 1.58746,1.874978 2.30112,2.398867 2.30112,1.689246 z m 76.75933,-7.896455 2.60447,-2.881928 -2.88195,2.604446 c -1.58505,1.432454 -2.88194,2.729317 -2.88194,2.881925 0,0.685056 0.7317,0.08191 3.15942,-2.604443 z m -16.35054,-4.448512 c -0.87578,-0.869246 -0.97763,-0.767393 -0.49642,0.496393 0.33314,0.874524 0.82884,1.366671 1.10186,1.093652 0.27314,-0.27301 5.7e-4,-0.98853 -0.60544,-1.590045 z m -1.85713,-3.261135 c -0.50748,-0.948264 -1.36097,-1.994975 -1.89663,-2.326046 -0.53572,-0.331061 -0.28823,0.444781 0.55011,1.724106 1.77491,2.708893 2.69403,3.119742 1.34652,0.60194 z m 34.5567,-2.060524 2.21686,-0.407583 -2.32997,-0.120757 c -1.28434,-0.06656 -2.87618,0.57567 -3.54702,1.43105 -1.05884,1.35016 -1.04415,1.418803 0.11294,0.52834 0.73161,-0.562905 2.32776,-1.206879 3.54702,-1.43105 z m -56.3084,-15.723789 c -0.30128,-0.487705 -1.02328,-0.880637 -1.60414,-0.873165 -0.63457,0.0074 -0.5252,0.356673 0.27416,0.873165 1.70355,1.100928 2.01051,1.100928 1.33013,0 z m -37.24333,-7.980719 c 0.88275,-0.975419 1.40548,-1.77349 1.16163,-1.77349 -0.24399,0 -1.16564,0.798071 -2.04839,1.77349 -0.88274,0.975419 -1.40548,1.77349 -1.16163,1.77349 0.244,0 1.16566,-0.798071 2.04839,-1.77349 z m 18.82489,-1.422498 c -0.29461,-0.294648 -1.05948,-0.326156 -1.69962,-0.07004 -0.70737,0.283077 -0.49726,0.493183 0.53577,0.535739 0.93476,0.03851 1.45851,-0.171061 1.16385,-0.465737 z M 25.133134,109.68847 c -1.105704,-0.68338 -1.073345,-1.03233 0.229236,-2.47148 2.034882,-2.24854 1.916739,-6.01303 -0.257071,-8.186739 -3.467865,-3.467843 -3.324154,-3.529036 13.639945,-5.809045 5.794965,-0.778828 11.252151,-1.86313 12.127058,-2.409522 1.148488,-0.717213 2.173637,-0.727833 3.687369,-0.03818 1.606775,0.732063 6.084645,0.361026 19.164373,-1.58804 9.387233,-1.398801 17.922892,-3.000987 18.968119,-3.560375 1.045219,-0.559366 4.761587,-1.118754 8.258617,-1.243092 3.497,-0.124347 8.01369,-0.505745 10.03705,-0.847602 3.56514,-0.602324 3.67886,-0.546913 3.67886,1.792109 0,1.327487 0.46328,3.959985 1.02955,5.849974 0.97793,3.263948 1.11138,3.362348 2.66024,1.960618 2.16391,-1.958297 2.06102,-4.84831 -0.27851,-7.822492 -2.20833,-2.807441 -3.78453,-9.427347 -2.08979,-8.777033 0.58,0.222553 1.53125,-0.169909 2.11394,-0.871848 0.83706,-1.008562 0.74856,-1.587428 -0.42163,-2.757599 -1.92195,-1.921974 -0.63714,-3.255027 3.31808,-3.442645 2.69974,-0.12802 3.16241,0.232593 4.9375,3.849078 1.6181,3.296595 1.96498,5.551763 1.99519,12.970945 0.0268,6.934179 -0.26646,9.232088 -1.29359,10.084441 -0.73156,0.607162 -1.33009,1.663466 -1.33009,2.347408 0,0.68391 -1.08604,1.656399 -2.41344,2.161059 -3.16694,1.2041 -6.22324,-0.17662 -6.96907,-3.148164 -0.70957,-2.827151 -3.29701,-2.938384 -11.01267,-0.473539 -3.05334,0.975422 -7.594453,1.763449 -10.091426,1.751158 -7.184467,-0.03515 -35.365555,4.583405 -37.139396,6.086955 -0.903729,0.76605 -3.832784,1.44329 -6.941923,1.60508 -4.497862,0.23393 -15.263794,1.86104 -22.538181,3.40596 -0.979468,0.20813 -2.360218,0.02 -3.06834,-0.41747 z m -4.810126,-4.08012 c -0.295939,-0.77145 -0.538246,-2.60039 -0.538246,-4.06424 0,-4.110199 2.169883,-2.569964 2.489546,1.76713 0.268786,3.64856 -0.90322,5.02838 -1.9513,2.29711 z M 388.77406,84.682324 c 0.0751,-1.502429 0.21214,-1.638569 0.50838,-0.505073 0.2232,0.853527 1.07458,1.545713 1.8923,1.538239 1.29314,-0.01335 1.31355,-0.136064 0.15653,-0.954226 -0.88088,-0.622989 -0.93329,-0.835529 -0.15518,-0.629312 1.95059,0.516896 1.62051,2.021311 -0.50986,2.323845 -1.59912,0.227229 -1.97476,-0.12501 -1.89232,-1.773473 z m 4.86557,-0.578924 c -0.25136,-0.406434 0.10695,-0.738974 0.79539,-0.738974 0.68863,0 1.04659,0.332464 0.79539,0.738974 -0.25103,0.406391 -0.6091,0.738929 -0.79539,0.738929 -0.18632,0 -0.54423,-0.332473 -0.79539,-0.738929 z m -37.12708,-1.795928 c -0.89681,-1.108415 -0.86706,-1.215516 0.16488,-0.593493 0.95216,0.573978 1.11679,0.388047 0.67525,-0.762588 -0.73761,-1.922153 0.84842,-1.025724 2.00334,1.132292 1.08327,2.024132 -1.23879,2.206896 -2.84332,0.223877 z m 39.78732,0.02354 c -0.25135,-0.406435 0.10696,-0.738963 0.7954,-0.738963 0.68863,0 1.04658,0.332453 0.79537,0.738963 -0.25102,0.406433 -0.60909,0.738973 -0.79537,0.738973 -0.18633,0 -0.54424,-0.332475 -0.7954,-0.738973 z m -6.56907,-2.364678 c 0.0167,-1.463128 0.21683,-1.954316 0.44162,-1.091547 0.22489,0.862778 0.21014,2.059897 -0.0335,2.660246 -0.24297,0.60035 -0.42688,-0.105549 -0.40878,-1.568699 z m 11.00278,-0.295602 c -0.25103,-0.406434 0.10664,-0.738962 0.79541,-0.738962 0.68865,0 1.04659,0.332463 0.79541,0.738962 -0.25103,0.406445 -0.6091,0.738973 -0.79541,0.738973 -0.18636,0 -0.54422,-0.332463 -0.79541,-0.738973 z m 2.56156,-1.933196 c -0.42433,-0.686513 -0.35811,-0.931315 0.16457,-0.608289 0.48104,0.297273 2.82215,-1.436714 5.20244,-3.85337 2.38031,-2.416623 3.96892,-4.393899 3.53021,-4.393899 -0.43871,0 0.33569,-1.182896 1.72086,-2.628696 1.38513,-1.44579 2.83638,-2.432207 3.22499,-2.19204 0.3886,0.240302 1.15797,-0.406731 1.70966,-1.437586 0.55169,-1.030844 1.23331,-1.644035 1.5147,-1.362643 0.28153,0.281526 1.14691,0.01679 1.92335,-0.589125 1.25335,-0.977285 1.2732,-0.92427 0.17696,0.472494 -0.67916,0.865291 -1.38083,1.427229 -1.55929,1.248731 -0.17862,-0.178631 -4.0536,3.459496 -8.61145,8.084411 -5.90812,5.995062 -8.49075,8.079108 -8.99696,7.260012 z m 11.97841,-11.072421 c 1.14547,-1.219267 1.88314,-2.216834 1.63926,-2.216834 -0.24398,0 -1.38053,0.997567 -2.52599,2.216834 -1.14545,1.219299 -1.88314,2.216866 -1.63929,2.216866 0.24398,0 1.38058,-0.997567 2.52602,-2.216866 z m -16.23153,-8.85633 c 0.81109,-1.700841 1.63214,-2.93502 1.82454,-2.742608 0.40564,0.405628 -2.28621,5.835092 -2.89297,5.835092 -0.22354,0 0.2574,-1.391602 1.06843,-3.092484 z m 24.69352,1.380277 c -0.28053,-0.454026 -0.10457,-1.076129 0.39102,-1.382451 0.49566,-0.306321 0.9012,-0.285215 0.9012,0.04731 0,0.332467 0.69832,0.06338 1.55181,-0.59743 1.26331,-0.978328 1.23777,-0.833644 -0.13741,0.778144 -1.91748,2.247443 -2.0074,2.285781 -2.7066,1.154421 z m 4.4764,-3.477893 c -0.58154,-0.940998 -0.0727,-1.351523 1.41459,-1.141015 0.33482,0.04731 3.42883,-2.974739 6.876,-6.7158 3.44721,-3.741093 6.89896,-6.894639 7.67062,-7.007881 1.22837,-0.18031 1.21473,0.002 -0.10927,1.465166 -0.83177,0.919078 -1.76409,1.602811 -2.0718,1.519394 -0.30764,-0.08349 -3.39267,2.78438 -6.85548,6.372812 -3.99004,4.134788 -6.52623,6.151916 -6.92463,5.507324 z m 17.69223,-16.030505 c -0.28051,-0.454025 -0.10457,-1.07613 0.39104,-1.382462 0.49566,-0.30632 0.90119,-0.284873 0.90119,0.04731 0,0.332466 0.69833,0.06338 1.55185,-0.597442 1.26327,-0.978327 1.23773,-0.833642 -0.13742,0.778155 -1.91751,2.247401 -2.00739,2.28577 -2.70661,1.154413 z m 4.46473,-3.496845 c -0.27081,-0.438474 0.10153,-1.290315 0.82763,-1.893014 0.7262,-0.602698 1.32923,-0.74765 1.3401,-0.322079 0.0109,0.425509 0.76343,-0.194048 1.67242,-1.376422 1.33667,-1.738878 4.51507,-3.366454 4.51507,-2.31205 0,0.921356 -7.9589,6.544941 -8.35522,5.903637 z m 8.9274,-6.996986 c -0.28019,-0.453046 0.63004,-1.915131 2.02231,-3.24903 1.39232,-1.333889 2.76055,-2.054589 3.04056,-1.601502 0.28018,0.453057 -0.63004,1.915141 -2.02232,3.249029 -1.39229,1.33389 -2.76055,2.05459 -3.04055,1.601503 z m 2.97481,-2.42526 c 1.14548,-1.219279 1.88313,-2.216877 1.63927,-2.216877 -0.24398,0 -1.38057,0.997598 -2.52601,2.216877 -1.14547,1.219267 -1.88314,2.216865 -1.63929,2.216865 0.244,0 1.3806,-0.997598 2.52603,-2.216865 z m -24.82889,-44.228829 c 0,-3.067656 2.07314,-4.406449 5.75414,-3.715884 4.03815,0.757564 3.93292,1.823015 -0.39835,4.032666 -4.51879,2.305322 -5.35579,2.255822 -5.35579,-0.316782 z m -60.8443,-13.645025 c -0.54389,-0.358315 -1.23867,-1.453541 -1.54399,-2.433825 -0.33858,-1.087156 -2.63293,-2.700684 -5.88236,-4.136839 -2.92996,-1.294974 -5.5711,-2.989971 -5.86911,-3.766672 -0.86083,-2.243218 1.97603,-5.631405 6.73352,-8.042213 4.93175,-2.4991 8.27927,-2.758294 11.54123,-0.893602 1.21927,0.697 3.8365,1.281423 5.81605,1.298696 1.97954,0.01742 4.37376,0.630245 5.32048,1.362138 1.68811,1.305063 1.68034,1.365359 -0.40435,3.129681 -1.81338,1.534729 -1.98352,2.11092 -1.15814,3.922434 1.18915,2.60984 -0.57236,4.50545 -3.48008,3.745062 -1.41937,-0.371177 -2.71566,0.382946 -5.15508,2.998957 -3.32252,3.56308 -4.17128,3.966978 -5.91817,2.816183 z m 4.55245,-4.975067 c 0.67096,-0.670984 1.16219,-1.98692 1.09157,-2.924323 -0.10121,-1.342361 -0.65618,-1.626884 -2.61342,-1.339618 -1.40791,0.206654 -2.48505,0.920304 -2.48505,1.646538 0,0.704983 -0.39903,1.035184 -0.88673,0.733756 -1.4757,-0.912038 -1.00157,-2.227871 1.10842,-3.075972 1.3502,-0.542696 1.52862,-0.82014 0.55194,-0.858169 -2.21406,-0.08626 -3.97701,2.415572 -2.64255,3.750038 0.58895,0.58897 1.54969,1.088991 2.13496,1.111159 0.58524,0.02215 0.96432,0.520961 0.8424,1.108428 -0.29928,1.441656 1.39364,1.352975 2.89846,-0.151817 z m -8.88401,-5.873997 c 1.49496,-0.642406 1.3291,-0.771889 -1.05609,-0.824418 -3.6306,-0.07997 -4.38678,-1.33898 -1.86502,-3.105269 2.23449,-1.565114 1.49377,-1.87574 -1.12755,-0.472844 -2.135,1.14263 -2.21033,3.139268 -0.16322,4.331503 1.82231,1.06139 1.90415,1.062773 4.21205,0.07101 z m 9.69212,-3.44651 c 0.84189,-1.362199 -1.94298,-2.904572 -4.5397,-2.514281 -2.38587,0.358614 -2.36924,0.380255 0.38976,0.507452 2.87942,0.132752 3.867,1.361069 1.77351,2.205822 -0.6825,0.275397 -0.53222,0.474165 0.39101,0.517265 0.8247,0.03843 1.71816,-0.283803 1.98542,-0.716258 z m -7.71541,-2.409705 c -0.29461,-0.294669 -1.05947,-0.326173 -1.69957,-0.06995 -0.70739,0.283072 -0.49731,0.493195 0.53573,0.535741 0.93476,0.03839 1.4585,-0.171087 1.16384,-0.465747 z"
       id="path21"
       inkscape:connector-curvature="0" />
  </g>
</svg>
