<?xml version="1.0" encoding="UTF-8" standalone="no"?>
<!-- Created with Inkscape (http://www.inkscape.org/) -->

<svg
   xmlns:dc="http://purl.org/dc/elements/1.1/"
   xmlns:cc="http://creativecommons.org/ns#"
   xmlns:rdf="http://www.w3.org/1999/02/22-rdf-syntax-ns#"
   xmlns:svg="http://www.w3.org/2000/svg"
   xmlns="http://www.w3.org/2000/svg"
   xmlns:sodipodi="http://sodipodi.sourceforge.net/DTD/sodipodi-0.dtd"
   xmlns:inkscape="http://www.inkscape.org/namespaces/inkscape"
   width="2000"
   height="2000"
   viewBox="0 0 529.16665 529.16668"
   version="1.1"
   id="svg8"
   inkscape:version="0.92.4 (5da689c313, 2019-01-14)"
   sodipodi:docname="discord.svg">
  <defs
     id="defs2" />
  <sodipodi:namedview
     id="base"
     pagecolor="#ffffff"
     bordercolor="#666666"
     borderopacity="1.0"
     inkscape:pageopacity="0.0"
     inkscape:pageshadow="2"
     inkscape:zoom="0.24748737"
     inkscape:cx="1055.5538"
     inkscape:cy="668.38058"
     inkscape:document-units="mm"
     inkscape:current-layer="layer1"
     showgrid="false"
     units="px"
     inkscape:window-width="1920"
     inkscape:window-height="1017"
     inkscape:window-x="-8"
     inkscape:window-y="-8"
     inkscape:window-maximized="1" />
  <metadata
     id="metadata5">
    <rdf:RDF>
      <cc:Work
         rdf:about="">
        <dc:format>image/svg+xml</dc:format>
        <dc:type
           rdf:resource="http://purl.org/dc/dcmitype/StillImage" />
        <dc:title></dc:title>
      </cc:Work>
    </rdf:RDF>
  </metadata>
  <g
     inkscape:label="Layer 1"
     inkscape:groupmode="layer"
     id="layer1"
     transform="translate(0,232.16668)">
    <path
       style="fill:#000000;stroke-width:2.50826192"
       d="m 443.85484,263.19703 c -54.03544,-49.63015 -84.38577,-76.1498 -85.67443,-74.86119 -0.85035,0.85035 0.38758,8.50268 2.7513,17.00465 3.48129,12.52145 3.67877,15.8639 1.03978,17.59411 -1.79192,1.17478 -63.64437,1.83989 -137.45004,1.47795 -119.57105,-0.58586 -135.011871,-1.11183 -141.716711,-4.82347 -8.48608,-4.69763 -19.31079,-15.69059 -23.5221,-23.88752 -4.52565,-8.80896 -3.92217,-341.99673 0.63899,-352.65626 4.17634,-9.76094 15.31889,-20.58498 24.92774,-24.21547 4.73065,-1.78734 62.083311,-2.66786 173.777671,-2.66786 135.98424,0 168.20455,0.63707 174.788,3.45347 9.76094,4.17643 20.58494,15.31889 24.21542,24.92779 4.15387,10.9942 3.69834,428.14304 -0.46736,428.0597 -1.72442,-0.0401 -7.71307,-4.26716 -13.308,-9.4059 z M 201.77637,109.86845 c 2.85302,-4.00662 5.171,-8.2393 5.15115,-9.4059 -0.0178,-1.166595 -5.66346,-5.224748 -12.54134,-9.018095 -19.19595,-10.587089 -14.89408,-12.170854 9.44216,-3.476122 20.62134,7.367498 24.06876,7.840554 57.06293,7.83023 33.2232,-0.0089 36.31588,-0.445556 57.38558,-8.066869 18.02525,-6.520438 21.47703,-7.179895 18.11055,-3.459925 -2.28763,2.527786 -8.64075,6.616776 -14.11803,9.086714 -5.47732,2.469938 -9.95869,5.555993 -9.95869,6.857867 0,1.302 2.4338,5.7852 5.40835,9.96261 5.141,7.21989 6.0715,7.52693 18.81949,6.21131 16.9363,-1.74801 36.99616,-10.8555 49.13876,-22.309677 8.65398,-8.163385 9.40603,-9.975957 9.40603,-22.670596 0,-30.411874 -13.65307,-84.805427 -28.77907,-114.655161 -5.64147,-11.132899 -8.33114,-13.442245 -24.98452,-21.452202 -16.67702,-8.021347 -44.05864,-14.497646 -44.05864,-10.420846 0,0.859831 6.49014,4.913312 14.42249,9.007641 16.66753,8.603157 15.058,9.271024 -8.62327,3.578156 -22.75616,-5.470557 -66.51417,-5.323447 -90.62987,0.305255 -10.09891,2.356825 -19.01991,3.626969 -19.82461,2.822316 -0.80483,-0.804876 4.91856,-4.285092 12.71818,-7.734382 7.79952,-3.449334 14.18099,-7.003505 14.18099,-7.898222 0,-3.903614 -24.85953,2.31246 -41.76299,10.442739 -16.48091,7.927012 -19.13235,10.220917 -24.84466,21.49354 -20.97822,41.3985104 -35.02706,115.669266 -24.82492,131.239662 8.87549,13.545747 40.05397,28.763007 59.28137,28.933477 7.38089,0.0663 10.27676,-1.38085 14.42258,-7.20303 z M 202.603,55.62708 c -3.01245,-2.109996 -6.60093,-7.906588 -7.97458,-12.881218 -5.61713,-20.343717 12.02099,-38.3424466 30.1966,-30.813867 22.87088,9.473533 16.87142,47.531461 -7.49285,47.531461 -5.08859,0 -11.71676,-1.726425 -14.72917,-3.836376 z m 86.50649,1.127173 c -2.41427,-1.406174 -6.18252,-6.023932 -8.37381,-10.2615 -12.39072,-23.960986 17.21783,-47.6756326 36.03314,-28.860281 14.87214,14.872093 5.60681,41.923984 -14.3011,41.75467 -4.93275,-0.04005 -10.94405,-1.226715 -13.35823,-2.632889 z"
       id="path406"
       inkscape:connector-curvature="0" />
  </g>
</svg>
